<svg width="134" height="148" viewBox="0 0 134 148" fill="none" xmlns="http://www.w3.org/2000/svg">
<path fill-rule="evenodd" clip-rule="evenodd" d="M131.31 110.877C133.072 107.832 134 104.377 134 100.859V47.007C134 43.4893 133.072 40.0338 131.31 36.9892C129.548 33.9446 127.014 31.4186 123.964 29.666L76.964 2.65904C73.9321 0.91683 70.4963 0 66.9995 0C63.5027 0 60.0669 0.91683 57.035 2.65904L10.035 29.666C6.98509 31.4187 4.45138 33.9448 2.68951 36.9894C0.927645 40.034 -5.83476e-05 43.4894 2.7524e-09 47.007V100.859C4.27191e-05 104.377 0.927892 107.832 2.68994 110.877C4.45199 113.922 6.98591 116.448 10.036 118.2L57.036 145.207C60.0679 146.949 63.5037 147.866 67.0005 147.866C70.4973 147.866 73.9331 146.949 76.965 145.207L123.965 118.2C127.015 116.447 129.549 113.921 131.31 110.877ZM46.3476 118.488C46.1197 118.763 45.9633 119.089 45.8917 119.439C46.1548 119.802 46.5159 120.083 46.9328 120.249C52.9841 123.706 59.0243 127.178 65.0536 130.666C65.7093 131.089 66.4731 131.314 67.2536 131.314C68.034 131.314 68.7981 131.089 69.4538 130.666C73.5471 128.293 77.6384 125.917 81.7277 123.538C83.0382 122.903 84.2783 122.132 85.4276 121.238C85.6136 120.794 85.3902 120.453 85.1746 120.123C85.1444 120.077 85.1143 120.031 85.0856 119.985C84.1646 118.507 83.2255 117.042 82.2861 115.576C82.0025 115.133 81.7188 114.691 81.4357 114.248C79.9561 111.932 78.4829 109.612 77.0098 107.293C74.1241 102.751 71.2393 98.2092 68.3097 93.694C68.1181 93.4529 68.0071 93.1576 67.9926 92.85C67.978 92.5424 68.0607 92.2381 68.2287 91.98C70.0145 88.9862 71.7846 85.9829 73.5549 82.9796C75.041 80.4583 76.5271 77.9369 78.0226 75.421C78.4766 74.66 78.5538 74.665 79.0368 75.421C81.3659 79.0652 83.682 82.7201 85.9974 86.3739C87.4268 88.6296 88.856 90.8849 90.2877 93.137C91.5004 95.0456 92.7105 96.9558 93.9207 98.8661C96.3499 102.701 98.7793 106.536 101.23 110.358C101.277 110.432 101.322 110.508 101.367 110.585C101.583 110.951 101.804 111.325 102.279 111.443C103.343 111.071 104.348 110.546 105.262 109.886C105.377 109.826 105.498 109.77 105.62 109.714C106.082 109.502 106.555 109.284 106.809 108.779C106.8 108.322 106.633 107.882 106.335 107.535C104.729 104.948 103.127 102.358 101.527 99.766L89.6696 80.586C87.3569 76.8353 85.04 73.0873 82.7187 69.342C82.5142 69.113 82.3875 68.8253 82.3566 68.5199C82.3257 68.2145 82.3923 67.9072 82.5468 67.642C85.3621 62.8706 88.179 58.1003 90.9977 53.331C91.4337 52.59 91.5126 52.6 91.9486 53.29C93.167 55.2186 94.404 57.1369 95.6409 59.0551C96.3004 60.0779 96.96 61.1007 97.6166 62.125C103.235 70.8383 108.835 79.5633 114.417 88.3C114.585 88.5645 114.753 88.83 114.92 89.0957C115.444 89.9268 115.968 90.7585 116.537 91.558C116.565 91.598 116.593 91.645 116.623 91.694C116.783 91.959 116.977 92.2817 117.4 91.874C117.504 91.5327 117.543 91.1747 117.514 90.819C117.526 76.3603 117.526 61.9017 117.514 47.443C117.56 46.6102 117.367 45.7815 116.957 45.055C116.547 44.3285 115.938 43.7344 115.202 43.343C114.954 43.2047 114.711 43.0598 114.467 42.9149C114.265 42.7947 114.063 42.6745 113.859 42.558C107.56 38.9473 101.264 35.3303 94.9716 31.707C92.5997 30.3418 90.2253 28.9802 87.8509 27.6185C81.8733 24.1905 75.8951 20.7622 69.9547 17.276C69.1056 16.7063 68.1061 16.4021 67.0836 16.4021C66.0611 16.4021 65.0619 16.7063 64.2128 17.276C60.7643 19.3249 57.2884 21.3271 53.8122 23.3295C52.7382 23.9482 51.664 24.5669 50.5907 25.187C47.1663 27.1654 43.7456 29.1507 40.3249 31.1361C33.5686 35.0573 26.8122 38.9786 20.0268 42.847C18.9885 43.3353 18.1204 44.1239 17.5353 45.1109C16.9502 46.0979 16.6749 47.2377 16.7448 48.383C16.8094 58.259 16.8006 68.1355 16.7919 78.0122C16.7888 81.4274 16.7858 84.8427 16.7858 88.258C16.765 88.6465 16.7742 89.0359 16.8136 89.423C16.8208 89.4682 16.8247 89.517 16.8287 89.5665C16.8473 89.7982 16.8673 90.048 17.2348 90.048C17.2767 89.9855 17.319 89.9232 17.3613 89.8609C17.4463 89.7358 17.5313 89.6108 17.6127 89.484C25.4 77.4667 33.158 65.4306 40.8866 53.376C42.4335 50.9172 44.7485 49.0377 47.4726 48.029C50.4637 46.9398 53.6349 46.4287 56.8168 46.523C58.4527 46.5375 60.0902 46.5926 61.7277 46.6477C62.3573 46.6689 62.987 46.6901 63.6166 46.709C63.6417 46.7099 63.6681 46.7085 63.6951 46.7071C63.8229 46.7004 63.9636 46.6931 64.0387 46.921L21.7387 114.763C22.1783 115.016 22.612 115.264 23.0411 115.51C24.1411 116.139 25.2105 116.751 26.2716 117.378C26.6126 117.576 26.8036 117.525 26.9716 117.201C27.0276 117.094 27.0908 116.991 27.1542 116.888C27.1758 116.853 27.1973 116.818 27.2186 116.783C36.724 101.104 46.2283 85.4253 55.7316 69.746C60.2176 62.35 64.6981 54.952 69.1727 47.552C69.265 47.3157 69.4275 47.1132 69.6383 46.972C69.8491 46.8307 70.098 46.7575 70.3517 46.762C74.6605 46.767 78.9671 46.7484 83.2732 46.7298C84.8995 46.7228 86.5256 46.7157 88.1518 46.71C88.1687 46.71 88.186 46.7091 88.2037 46.7081C88.3093 46.7026 88.4262 46.6965 88.5307 46.879C88.479 46.9713 88.4258 47.0679 88.3712 47.1672C88.2525 47.3829 88.1269 47.611 87.9948 47.835C74.1101 71.385 60.2276 94.936 46.3476 118.488Z" fill="white"/>
</svg>
