<svg width="128" height="129" viewBox="0 0 128 129" fill="none" xmlns="http://www.w3.org/2000/svg">
<path fill-rule="evenodd" clip-rule="evenodd" d="M49.4803 122.217C81.6309 130.233 114.19 110.67 122.205 78.5227H122.204L122.204 78.5233C130.219 46.375 110.656 13.8099 78.5081 5.79561C46.3674 -2.21873 13.8079 17.3467 5.79711 49.497C-2.22074 81.6412 17.3432 114.203 49.4803 122.217ZM77.2615 40.3157C85.575 43.1793 91.6547 47.4718 90.4604 55.4574L90.4607 55.4568L90.4627 55.4583C89.5986 61.3039 86.3579 64.1337 82.0553 65.126C87.9626 68.2016 90.9687 72.918 88.1051 81.0948C84.5514 91.2509 76.1085 92.1077 64.8801 89.9827L62.1556 100.903L55.5705 99.2626L58.2599 88.4885C56.5528 88.0644 54.8091 87.6145 53.0123 87.1267L50.3139 97.9518L43.7368 96.3111L46.4616 85.3698C45.8287 85.208 45.1918 85.042 44.5503 84.8747C43.6325 84.6355 42.7052 84.3938 41.7669 84.1584L33.1979 82.0223L36.4671 74.4849C36.4671 74.4849 41.319 75.7748 41.253 75.6792C43.1173 76.1409 43.9444 74.9251 44.2703 74.115L48.5763 56.8518C48.7498 56.8933 48.9188 56.9356 49.0814 56.9763C49.1461 56.9925 49.2098 57.0084 49.2723 57.024C49.0095 56.9184 48.7714 56.8509 48.5878 56.8043L51.6599 44.481C51.7399 43.0819 51.2577 41.3168 48.5913 40.6512C48.6942 40.5823 43.8089 39.4625 43.8089 39.4625L45.5605 32.4295L54.6411 34.6971L54.6334 34.7311C55.9985 35.0708 57.4055 35.3931 58.838 35.7193L61.5364 24.9056L68.1171 26.5464L65.4726 37.1483C67.2395 37.5516 69.0172 37.9584 70.7483 38.3901L73.3737 27.8578L79.9585 29.4985L77.2615 40.3157ZM56.4334 79.5353C61.8061 80.9543 73.5487 84.0558 75.4157 76.5539H75.416C77.3286 68.884 65.9424 66.3287 60.385 65.0816C59.7634 64.9421 59.2148 64.819 58.7658 64.7069L55.1499 79.2021C55.5183 79.2936 55.9501 79.4076 56.4334 79.5353ZM61.4997 58.354C65.9789 59.5495 75.7504 62.1573 77.4522 55.3389H77.4528C79.1905 48.3654 69.6943 46.263 65.0563 45.2361C64.5345 45.1206 64.0743 45.0187 63.6984 44.925L60.4201 58.0714C60.7296 58.1485 61.0928 58.2455 61.4997 58.354Z" fill="white"/>
</svg>
