<svg width="128" height="128" viewBox="0 0 128 128" fill="none" xmlns="http://www.w3.org/2000/svg">
<path fill-rule="evenodd" clip-rule="evenodd" d="M124 64C124 97.1371 97.1371 124 64 124C30.8629 124 4 97.1371 4 64C4 30.8629 30.8629 4 64 4C97.1371 4 124 30.8629 124 64ZM64.2893 36.9697C72.7716 35.5534 79.7005 37.0153 82.7157 43.8529C84.7107 49.2894 83.0812 53.4468 79.868 56.2945C85.0914 56.8275 91.3807 61.5483 92.2944 67.3047C93.7259 76.8529 86.736 83.0966 76.8376 85.5026L79.5939 96.1778L73.1675 97.8377L70.4264 87.1321C68.7513 87.5737 67.0305 88.0001 65.264 88.4113L68.0203 99.1778L61.5939 100.838L58.8376 90.1473C57.33 90.528 45.8477 93.4671 45.8477 93.4671L45.1472 85.4417C45.1472 85.4417 49.9289 84.2996 49.8223 84.2387C51.6193 83.7514 51.7716 82.3199 51.6802 81.4823L44.1878 52.5179C43.6091 51.2844 42.3756 49.9747 39.7564 50.66C39.802 50.5534 35.0812 51.8783 35.0812 51.8783L33.3147 44.995C33.3147 44.995 44.9036 42.0255 46.2893 41.6296L43.5635 31.061L49.9899 29.4011L52.6701 39.8783C53.7648 39.5683 54.8657 39.3075 55.9571 39.0491C56.5813 38.9013 57.2023 38.7542 57.8173 38.5991L55.1371 28.061L61.5635 26.4011L64.2893 36.9697ZM65.653 80.3182C71.1058 79.1944 80.7275 77.2112 79.6244 69.0559C77.6701 61.5278 66.4869 64.7211 61.1373 66.2486C60.5675 66.4113 60.0639 66.5551 59.6447 66.6651L63.4213 80.8123C64.0187 80.6551 64.7827 80.4976 65.653 80.3182ZM59.9587 59.7197C64.5383 58.7923 72.8843 57.1023 71.7056 49.792C69.2956 42.988 60.9248 45.4627 56.4265 46.7926C55.7801 46.9837 55.2137 47.1512 54.7564 47.2641L58.198 60.1016C58.6704 59.9805 59.2722 59.8587 59.9587 59.7197Z" fill="white"/>
</svg>
