<svg width="129" height="128" viewBox="0 0 129 128" fill="none" xmlns="http://www.w3.org/2000/svg">
<path fill-rule="evenodd" clip-rule="evenodd" d="M124 63C124 96.1371 97.1371 123 64 123C30.8629 123 4 96.1371 4 63C4 29.8629 30.8629 3 64 3C97.1371 3 124 29.8629 124 63ZM41.4652 63.2662C41.2547 66.924 44.0704 70.0556 47.7282 70.2661H48.1229C51.8071 70.2661 54.7807 67.2925 54.7544 63.6083C54.7544 59.9242 51.7808 56.9506 48.0966 56.9769C44.5704 56.9769 41.6494 59.74 41.4652 63.2662ZM14.4132 63.5818C14.4659 62.3976 15.4922 61.4766 16.6763 61.5555C17.8605 61.6345 18.7816 62.6345 18.7026 63.8186C18.6237 65.0028 17.6237 65.9239 16.4395 65.8449C15.2553 65.7923 14.3606 64.766 14.4132 63.5818ZM41.0443 24.6881C42.0969 24.1618 42.5179 22.846 41.9916 21.7934C41.4653 20.7408 40.1495 20.3198 39.0969 20.8461C38.0443 21.3724 37.6233 22.6618 38.1496 23.7144C38.6759 24.7933 39.9653 25.2407 41.0443 24.6881ZM49.2546 32.0037C50.0704 33.6353 49.4125 35.6352 47.7809 36.451C46.1494 37.2668 44.1494 36.6089 43.3337 34.9773C42.5179 33.3458 43.1758 31.3458 44.8073 30.5301C46.4389 29.7143 48.4388 30.3722 49.2546 32.0037ZM25.0972 44.5294C26.3603 45.3452 28.0445 45.0031 28.8866 43.7399C29.7024 42.4768 29.3603 40.7926 28.0972 39.9506C26.834 39.1348 25.1499 39.4769 24.3078 40.74C23.4657 42.0031 23.8341 43.7136 25.0972 44.5294ZM25.6235 63.5029C25.7287 61.6609 27.2813 60.2662 29.1234 60.3714C30.9654 60.4767 32.3601 62.0556 32.2549 63.8713C32.1496 65.7134 30.597 67.1081 28.755 67.0028C26.9129 66.8976 25.5182 65.345 25.6235 63.5029ZM25.4656 82.6604C24.1235 83.3446 23.5709 84.9762 24.2551 86.3446C24.9393 87.6866 26.5708 88.2393 27.9392 87.5551C29.2813 86.8709 29.8339 85.2393 29.1497 83.8709C28.4655 82.5289 26.8076 81.9762 25.4656 82.6604ZM43.7547 52.3717C42.5969 54.1874 40.1759 54.6874 38.3601 53.5032C36.5444 52.319 36.0444 49.898 37.2286 48.1086C38.3864 46.2928 40.8074 45.7929 42.6232 46.977C44.4389 48.1349 44.9389 50.5559 43.7547 52.3717ZM79.2802 36.1877C80.8065 37.1877 82.8854 36.7667 83.8854 35.2404C84.8853 33.7141 84.4643 31.6352 82.938 30.6352C81.4117 29.6353 79.3328 30.0563 78.3329 31.5826C77.3066 33.1352 77.7276 35.1878 79.2802 36.1877ZM89.0431 23.846C88.3852 24.846 87.0694 25.1354 86.0695 24.4776C85.0958 23.8197 84.8063 22.4776 85.4379 21.4776C86.0958 20.504 87.4115 20.2145 88.4115 20.8724C89.4115 21.5303 89.701 22.846 89.0431 23.846ZM79.7801 56.924C76.1223 56.7135 72.9645 59.5292 72.7803 63.187C72.5698 66.8448 75.3855 70.0027 79.0433 70.1869H79.4117C83.0695 70.1869 86.0431 67.2132 86.0431 63.5291C86.0695 60.0292 83.3064 57.1082 79.7801 56.924ZM55.9122 56.6874C53.386 56.6874 51.0966 55.2663 49.965 53.0295C48.3071 49.7665 49.6229 45.7665 52.9123 44.0824C56.1754 42.4245 60.1753 43.7403 61.8331 47.0297C62.3068 47.977 62.5437 49.0033 62.5437 50.0296C62.5437 53.7137 59.57 56.6874 55.9122 56.6874ZM102.043 44.5295C103.385 43.8453 103.911 42.1875 103.227 40.8454C102.543 39.5033 100.885 38.977 99.5428 39.6612C98.2008 40.3454 97.6745 41.9769 98.3323 43.319C99.0429 44.6611 100.674 45.2137 102.043 44.5295ZM83.4643 51.8715C82.4906 49.9505 83.2801 47.6084 85.2011 46.6347C87.1221 45.6874 89.4641 46.4505 90.4378 48.3715C91.4114 50.2926 90.622 52.6346 88.701 53.6083C86.78 54.5819 84.4379 53.7925 83.4643 51.8715ZM63.4911 23.4774C64.9911 23.5564 66.2805 22.3985 66.3858 20.8986C66.491 19.3986 65.3068 18.1092 63.8069 18.0039C62.3069 17.9249 61.0175 19.0565 60.9122 20.5565C60.8333 22.0827 61.9911 23.3722 63.4911 23.4774ZM67.5699 36.9771C67.4646 39.1349 65.6226 40.7928 63.4647 40.6612C61.3069 40.5559 59.6753 38.7139 59.7806 36.556C59.8858 34.3982 61.7279 32.7403 63.8857 32.8719C66.0436 32.9771 67.7015 34.8192 67.5699 36.9771ZM42.3074 80.5552C44.2284 79.5815 45.0178 77.2395 44.0442 75.3185C43.0705 73.3975 40.7285 72.608 38.8074 73.5817C36.8864 74.5553 36.097 76.8974 37.0706 78.8184C38.0443 80.7394 40.3864 81.5289 42.3074 80.5552ZM67.912 55.5555C64.8331 53.5555 63.991 49.4503 65.991 46.3715C67.2278 44.5031 69.3067 43.3715 71.5435 43.3715C72.8329 43.3715 74.096 43.7399 75.175 44.4505C78.2538 46.4504 79.0959 50.5556 77.096 53.6345C75.096 56.7133 70.9909 57.5554 67.912 55.5555ZM77.5433 74.1604C75.8855 70.871 71.8856 69.5553 68.6225 71.2131C65.3331 72.871 64.0173 76.8709 65.6752 80.134C67.333 83.4234 71.3329 84.7391 74.596 83.0813C77.8591 81.4497 79.2012 77.5025 77.5696 74.2131C77.5696 74.1868 77.5696 74.1868 77.5433 74.1604ZM83.7538 74.8182C84.9116 73.0025 87.3326 72.5025 89.1484 73.6867C90.9641 74.8709 91.4641 77.2919 90.2799 79.0813C89.122 80.8971 86.701 81.397 84.8853 80.2129C83.0696 79.055 82.5696 76.634 83.7538 74.8182ZM101.885 63.7134C101.99 61.8713 100.595 60.3187 98.7534 60.2134C96.9113 60.1082 95.3587 61.5029 95.2535 63.345C95.1482 65.187 96.5429 66.7396 98.385 66.8449C100.201 66.9501 101.78 65.5291 101.885 63.7134ZM108.806 63.371C108.858 62.1869 109.885 61.2658 111.069 61.3448C112.253 61.4237 113.148 62.4237 113.095 63.6079C113.016 64.7921 112.016 65.7131 110.832 65.6341C109.648 65.5815 108.753 64.5552 108.806 63.371ZM102.411 82.6605C101.148 81.8447 99.4639 82.1868 98.6218 83.4499C97.806 84.7131 98.1481 86.3972 99.4113 87.2393C100.674 88.0551 102.359 87.713 103.201 86.4499C104.043 85.1867 103.674 83.4762 102.411 82.6605ZM38.4391 103.318C39.0969 102.344 40.4127 102.055 41.4127 102.713C42.4126 103.37 42.7021 104.713 42.0179 105.686C41.36 106.66 40.0443 106.949 39.0443 106.291C38.0706 105.634 37.7812 104.318 38.4391 103.318ZM86.4642 102.502C85.4116 103.028 84.9906 104.344 85.5169 105.396C86.0432 106.449 87.3589 106.87 88.4116 106.344C89.4642 105.818 89.8852 104.528 89.3589 103.475C88.8326 102.397 87.5431 101.949 86.4642 102.502ZM59.5964 71.6078C62.6753 73.6341 63.5174 77.7392 61.5174 80.8181C60.2806 82.7128 58.2017 83.8444 55.9386 83.818C54.6492 83.818 53.3861 83.4496 52.3071 82.7391C49.2283 80.7129 48.3599 76.6077 50.3861 73.5288C52.4124 70.4499 56.5176 69.6078 59.5964 71.6078ZM48.2282 91.0021C46.702 90.0022 44.6231 90.4232 43.6231 91.9495C42.6231 93.4758 43.0441 95.5547 44.5704 96.5546C46.0967 97.5546 48.1756 97.1336 49.1756 95.6073C50.2019 94.081 49.7808 92.0021 48.2282 91.0021ZM60.8333 106.291C60.9385 104.791 62.228 103.633 63.7279 103.712C65.2279 103.818 66.3858 105.107 66.3068 106.633C66.2016 108.133 64.9121 109.265 63.4122 109.186C61.9122 109.081 60.728 107.791 60.8333 106.291ZM63.7543 86.5284C61.5964 86.3968 59.7544 88.0546 59.6491 90.2125C59.5175 92.3703 61.1754 94.2124 63.3332 94.3177C65.4911 94.4229 67.3331 92.7914 67.4384 90.6335C67.57 88.502 65.9121 86.6336 63.7543 86.5284ZM78.2802 95.2127C77.4381 93.5812 78.096 91.5812 79.7275 90.7391C81.3854 89.897 83.3853 90.5812 84.2274 92.2128C85.0432 93.8443 84.3853 95.8443 82.7538 96.66C81.1222 97.5021 79.1223 96.8442 78.2802 95.2127Z" fill="white"/>
</svg>
