<svg width="128" height="128" viewBox="0 0 128 128" fill="none" xmlns="http://www.w3.org/2000/svg">
<path fill-rule="evenodd" clip-rule="evenodd" d="M64 124C97.1371 124 124 97.1371 124 64C124 30.8629 97.1371 4 64 4C30.8629 4 4 30.8629 4 64C4 97.1371 30.8629 124 64 124ZM65 21.5C41.5277 21.5 22.5 40.529 22.5 64C22.5 72.9702 25.2793 81.2916 30.0237 88.1499L24.5916 93.8039C21.7219 96.7909 21.8169 101.539 24.8039 104.408C27.7909 107.278 32.5387 107.183 35.4084 104.196L40.5945 98.7981C47.501 103.651 55.9178 106.5 65 106.5C76.7357 106.5 87.3708 101.733 95.0533 94.0503C97.9822 91.1214 97.9822 86.3726 95.0533 83.4437C92.1244 80.5148 87.3756 80.5148 84.4467 83.4437C79.4612 88.4292 72.5963 91.5 65 91.5C59.9621 91.5 55.2407 90.1452 51.18 87.7802L93.9324 43.2811C95.3357 41.8204 96.0886 39.8543 96.0197 37.8299C95.9508 35.8055 95.066 33.8951 93.5666 32.5332C86.0255 25.6838 75.9925 21.5 65 21.5ZM77.0043 39.2499L40.7519 76.9834C38.6769 73.1163 37.5 68.6955 37.5 64C37.5 48.813 49.8123 36.5 65 36.5C69.3073 36.5 73.3779 37.4869 77.0043 39.2499Z" fill="white"/>
</svg>
