<svg width="128" height="128" viewBox="0 0 128 128" fill="none" xmlns="http://www.w3.org/2000/svg">
<path fill-rule="evenodd" clip-rule="evenodd" d="M124 64C124 97.1371 97.1371 124 64 124C30.8629 124 4 97.1371 4 64C4 30.8629 30.8629 4 64 4C97.1371 4 124 30.8629 124 64ZM82 44.5L68.5 52.375L82 60.25V44.5ZM64 96.625L82 86.125V67.75L64 78.25L46 67.75V86.125L64 96.625ZM59.5 52.375L46 44.5V60.25L59.5 52.375ZM79.75 64L66.25 56.125V71.875L79.75 64ZM48.25 64L61.75 71.875V56.125L48.25 64ZM64 49.75L79.75 40.75L64 31.375L48.25 40.75L64 49.75ZM41.5 88.375V39.25L64 26.5L86.5 39.25V88.375L64 101.125L41.5 88.375Z" fill="white"/>
</svg>
