<svg width="129" height="128" viewBox="0 0 129 128" fill="none" xmlns="http://www.w3.org/2000/svg">
<path d="M64.5 4C52.6331 4 41.0328 7.51894 31.1658 14.1118C21.2989 20.7047 13.6085 30.0754 9.06726 41.039C4.526 52.0026 3.3378 64.0666 5.65291 75.7054C7.96802 87.3443 13.6825 98.0353 22.0736 106.426C30.4648 114.818 41.1558 120.532 52.7946 122.847C64.4335 125.162 76.4975 123.974 87.461 119.433C98.4246 114.892 107.795 107.201 114.388 97.3342C120.981 87.4673 124.5 75.8669 124.5 64C124.523 56.1436 122.998 48.3596 120.013 41.0924C117.027 33.8252 112.64 27.2173 107.101 21.6457C101.562 16.0742 94.9794 11.6483 87.7298 8.6206C80.4801 5.59294 72.7051 4.02286 64.8487 4H64.5ZM65.517 66.0339L59.27 87.0993H92.6841C92.9054 87.0915 93.1261 87.1275 93.3335 87.205C93.541 87.2826 93.7311 87.4004 93.893 87.5515C94.0549 87.7026 94.1854 87.8841 94.2771 88.0857C94.3688 88.2873 94.4199 88.505 94.4274 88.7264V89.2785L91.5218 99.3027C91.3937 99.7767 91.1082 100.193 90.7122 100.484C90.3162 100.774 89.8333 100.921 89.3426 100.901H38.2046L46.7761 71.6998L37.1877 74.6053L39.3669 67.9225L48.9552 65.017L61.0133 24.0484C61.1461 23.577 61.4327 23.1636 61.8277 22.874C62.2226 22.5844 62.703 22.4353 63.1925 22.4504H76.1223C76.3436 22.4426 76.5643 22.4785 76.7718 22.5561C76.9792 22.6337 77.1693 22.7514 77.3312 22.9026C77.4932 23.0537 77.6237 23.2352 77.7154 23.4368C77.8071 23.6384 77.8581 23.8561 77.8656 24.0775V24.6295L67.6962 59.2058L77.2845 56.3002L75.2506 63.2736L65.517 66.0339Z" fill="white"/>
</svg>
