<svg width="149" height="149" viewBox="0 0 149 149" fill="none" xmlns="http://www.w3.org/2000/svg">
<path fill-rule="evenodd" clip-rule="evenodd" d="M74.5 149C115.645 149 149 115.645 149 74.5C149 33.3548 115.645 0 74.5 0C33.3548 0 0 33.3548 0 74.5C0 115.645 33.3548 149 74.5 149ZM46.4612 94.9637C48.4995 95.6053 50.7077 95.9262 53.0857 95.9262C58.5591 95.9262 62.9188 94.6618 66.1649 92.1327C69.4111 89.566 71.6759 85.6968 72.9593 80.5256C73.3369 78.9024 73.6954 77.2794 74.0351 75.6562C74.4127 74.033 74.7333 72.3911 74.9977 70.7303C75.4506 68.1636 75.3752 65.9176 74.7712 63.9925C74.205 62.0674 73.2046 60.4442 71.7703 59.1232C70.3736 57.8022 68.6562 56.8206 66.6179 56.179C64.6174 55.4995 62.428 55.1598 60.05 55.1598C54.5391 55.1598 50.1603 56.4808 46.9141 59.1232C43.668 61.7656 41.422 65.6345 40.1764 70.7303C39.7988 72.3911 39.4215 74.033 39.044 75.6562C38.7042 77.2794 38.3833 78.9024 38.0814 80.5256C37.6663 83.0922 37.7417 85.3383 38.3079 87.2633C38.9119 89.1884 39.912 90.7926 41.3088 92.076C42.7055 93.3595 44.4229 94.3221 46.4612 94.9637ZM59.2007 85.9611C57.6532 87.1689 55.8601 87.7729 53.8218 87.7729C51.7456 87.7729 50.2547 87.1689 49.3488 85.9611C48.4429 84.7533 48.2164 82.8282 48.6694 80.1858C48.9712 78.5251 49.2734 76.9585 49.5753 75.4864C49.915 74.0143 50.2926 72.4855 50.7077 70.9002C51.3493 68.2578 52.4251 66.3327 53.935 65.1249C55.4825 63.9171 57.2756 63.3131 59.3139 63.3131C61.3522 63.3131 62.8431 63.9171 63.7869 65.1249C64.7307 66.3327 64.9571 68.2578 64.4663 70.9002C64.202 72.4855 63.9001 74.0143 63.5604 75.4864C63.2585 76.9585 62.8998 78.5251 62.4846 80.1858C61.843 82.8282 60.7482 84.7533 59.2007 85.9611ZM76.4084 94.9637C76.6349 95.228 76.9367 95.36 77.3143 95.36H85.0146C85.4297 95.36 85.7882 95.228 86.0904 94.9637C86.4301 94.6993 86.6375 94.3596 86.7132 93.9445L89.3178 81.5447H96.9614C101.831 81.5447 105.7 80.5068 108.569 78.4306C111.475 76.3545 113.4 73.1462 114.344 68.8052C114.797 66.6158 114.778 64.7098 114.287 63.0866C113.796 61.4258 112.928 60.0479 111.683 58.9533C110.437 57.8588 108.87 57.047 106.983 56.5187C105.133 55.9903 103.057 55.726 100.755 55.726H85.6941C85.3165 55.726 84.958 55.858 84.6183 56.1223C84.2786 56.3867 84.0709 56.7264 83.9955 57.1415L76.1819 93.9445C76.1062 94.3596 76.1819 94.6993 76.4084 94.9637ZM97.3012 73.7312H90.7899L92.9981 63.5962H99.7924C101.151 63.5962 102.151 63.8227 102.793 64.2756C103.473 64.7286 103.869 65.3326 103.982 66.0875C104.096 66.8423 104.058 67.7107 103.869 68.692C103.492 70.3906 102.68 71.655 101.434 72.4855C100.226 73.316 98.8487 73.7312 97.3012 73.7312Z" fill="white"/>
</svg>
