<svg width="129" height="128" viewBox="0 0 129 128" fill="none" xmlns="http://www.w3.org/2000/svg">
<path fill-rule="evenodd" clip-rule="evenodd" d="M64 124C97.1371 124 124 97.1371 124 64C124 30.8629 97.1371 4 64 4C30.8629 4 4 30.8629 4 64C4 97.1371 30.8629 124 64 124ZM105 53.2659V46.2307L40.4476 79.0567L34.8151 81.9281L23.2249 87.8265V94.8789L34.7355 89.022L44.582 84.0117L92.1781 59.7896C92.339 61.0224 92.4199 62.2643 92.4203 63.5076C92.414 73.5476 87.0799 82.8322 78.4041 87.9041C69.7283 92.976 59.0108 93.0753 50.2422 88.1651L49.8962 88.3482L43.7863 91.458C54.3109 99.0893 68.2317 100.181 79.8199 94.2837C91.4081 88.3865 98.7059 76.4969 98.7101 63.5076C98.7101 62.6196 98.6755 61.7315 98.6098 60.8539C98.4186 58.3268 99.7648 55.932 102.025 54.7793L105 53.2659ZM84.4351 35.5398C73.908 27.9088 59.9848 26.8198 48.3965 32.721C36.8082 38.6222 29.5134 50.5164 29.5147 63.5076C29.5147 64.3876 29.5482 65.2641 29.6151 66.1371C29.8066 68.6652 28.4586 71.0606 26.1968 72.2117L23.2249 73.7251V80.7844L31.9746 76.3304L34.8082 74.8861L37.6002 73.466L87.7254 47.9584L93.3579 45.0939L105 39.168V32.1121L93.4582 37.9932L83.6117 43.0034L36.0641 67.191C35.9033 65.9663 35.8224 64.7324 35.8219 63.4972C35.8351 53.4692 41.1631 44.1975 49.826 39.1274C58.489 34.0573 69.1921 33.9465 77.9584 38.8363L83.5944 35.9683L84.4351 35.5398Z" fill="#D9D9D9"/>
</svg>
