<svg width="129" height="128" viewBox="0 0 129 128" fill="none" xmlns="http://www.w3.org/2000/svg">
<path fill-rule="evenodd" clip-rule="evenodd" d="M124 64C124 97.1371 97.1371 124 64 124C30.8629 124 4 97.1371 4 64C4 30.8629 30.8629 4 64 4C97.1371 4 124 30.8629 124 64ZM93.1156 29H105.158L80.0967 53.814C71.0209 62.7954 56.3063 62.7954 47.2241 53.814L22.153 29H34.2052L53.2453 47.8497C56.0194 50.5838 59.758 52.1165 63.653 52.1165C67.5481 52.1165 71.2867 50.5838 74.0608 47.8497L93.1156 29ZM22.0001 98.0001H34.0506L53.26 78.9974C56.0341 76.2633 59.7727 74.7306 63.6678 74.7306C67.5628 74.7306 71.3014 76.2633 74.0755 78.9974L93.2784 98.0001H105.321L80.0968 73.0332C71.0145 64.0518 56.2999 64.0518 47.2241 73.0332L22.0001 98.0001Z" fill="#D9D9D9"/>
</svg>
