<svg width="128" height="128" viewBox="0 0 128 128" fill="none" xmlns="http://www.w3.org/2000/svg">
<path fill-rule="evenodd" clip-rule="evenodd" d="M120 64C120 94.9279 94.9279 120 64 120C33.0721 120 8 94.9279 8 64C8 33.0721 33.0721 8 64 8C94.9279 8 120 33.0721 120 64ZM87.3513 61.8184L87.4544 61.8968C87.5489 61.9684 87.6428 62.0398 87.7347 62.1156C92.561 66.0941 94.9827 71.6009 95 78.636C94.9942 85.6335 92.4949 91.0656 87.5019 94.932C82.509 98.7988 75.5625 100.732 66.6619 100.732H42.7598V97.8063H66.494C73.8671 97.8063 81.2358 96.3024 85.366 92.8898C87.4991 91.1918 89.2146 89.027 90.3807 86.562C91.5468 84.0971 92.1328 81.3974 92.0929 78.6704C92.0929 83.7592 89.9181 87.6931 85.8268 90.7352C81.4641 93.9671 76.4253 94.6133 68.88 94.6133H59.866V91.748H71.9249C74.2159 91.748 79.8446 91.6661 83.5268 88.9514C87.1272 86.2971 89.3495 83.0784 89.3495 78.6662C89.3495 74.09 87.1619 70.9188 83.5785 68.2644C80.7751 66.1917 77.7257 65.1661 69.4053 65.1661H47.6953V62.2966H69.7671C79.5174 62.2922 82.9627 64.1322 85.9774 66.4116C87.9714 67.9155 90.2713 70.1128 91.391 73.7366C90.2986 69.9548 88.1178 66.5787 85.1204 64.0288C81.1495 60.5944 74.6465 59.1165 67.463 59.1165H53.772V56.1736H67.8506C71.065 56.1442 74.272 56.4884 77.4072 57.1991C78.1547 56.9706 78.8766 56.6644 79.5604 56.2856C81.6664 55.1007 83.0921 52.1965 83.0921 49.7835C83.0921 46.0003 80.6415 44.0268 78.7853 42.8893C77.8378 42.3076 74.7068 40.8382 66.4465 40.8382H55.1028V38.9251H66.774C75.9257 38.9251 78.0705 39.8731 80.3227 41.2864C82.726 42.7945 85.1808 45.4703 85.1808 49.7533C85.1808 53.6745 83.3589 56.4624 80.7276 57.9144L80.4521 58.061C80.7449 58.1644 81.0291 58.272 81.3132 58.384C83.7423 56.0962 85.1894 53.8899 85.1894 49.7663C85.1894 45.1902 82.9671 42.0189 79.3838 39.3646C76.5845 37.292 73.531 36.2665 65.2106 36.2665H49.3361V33.3968H65.5724C75.3227 33.3968 78.9015 35.0902 81.7827 37.5118C83.4279 38.882 86.0766 41.2131 87.2004 44.8369C86.0936 40.8641 84.7069 38.2098 80.9257 35.1247C76.8601 31.8111 70.4517 30.2125 63.2683 30.2125H42.5961V27.2695H63.6472C72.0999 27.2638 78.7378 29.2531 83.5615 33.2374C88.3849 37.2216 90.7966 42.727 90.7966 49.7533C90.7966 54.4902 89.6481 58.5118 87.3513 61.8184ZM84.806 60.1033C86.8021 57.1566 87.8709 53.6827 87.8795 50.1283C87.8609 53.679 86.4885 57.0945 84.0351 59.6725L84.0361 59.673C84.2942 59.815 84.5524 59.957 84.806 60.1033ZM52.3936 74.5121H73.0828V76.1141H52.3936V74.5121ZM72.9582 80.3422H60.9253V81.7159H72.9582V80.3422ZM42.7343 74.5121H48.8627V76.1141H42.7343V74.5121ZM57.5271 80.2301H38.9136V81.8319H57.5271V80.2301ZM38.9136 92.4587H56.4289V94.3792H38.9136V92.4587ZM50.7529 39.3733H43.5005V40.6953H50.7529V39.3733ZM38.4485 49.8871H55.0594V51.4244H38.4485V49.8871ZM72.9968 45.1902H45.4941V46.7275H72.9968V45.1902ZM59.2457 49.8871H72.4759V51.4244H59.2457V49.8871ZM84.9008 86.5127C87.5363 85.1125 89.3238 82.3419 89.3238 78.6404C89.3238 74.5082 86.9034 71.9142 84.5004 70.4536C82.2435 69.0919 80.2668 68.1742 70.9472 68.1742H56.0761V69.9968H70.6068C78.8627 69.9968 81.9981 71.4144 82.9456 71.9745C84.8018 73.0733 87.2521 74.9907 87.2521 78.6318C87.2521 80.9587 85.8268 83.755 83.7163 84.9055C81.7955 85.9484 77.8937 86.8835 72.0883 86.8835H34V88.7061H72.2607C78.5528 88.7061 82.2736 87.9046 84.9008 86.5127ZM38.927 97.8278H34.5471V100.614H38.927V97.8278Z" fill="black"/>
</svg>
