<svg width="128" height="128" viewBox="0 0 128 128" fill="none" xmlns="http://www.w3.org/2000/svg">
<path fill-rule="evenodd" clip-rule="evenodd" d="M120 64C120 33.0688 94.9313 8 64 8C33.0688 8 8 33.0688 8 64C8 94.9313 33.0688 120 64 120C94.9313 120 120 94.9313 120 64ZM44.3234 64C44.3234 74.8828 53.1391 83.6875 64.0109 83.6875C73.7562 83.6875 81.8281 76.5781 83.3922 67.2812H103.233C101.559 87.4938 84.6391 103.375 64 103.375C42.2563 103.375 24.625 85.7438 24.625 64C24.625 42.2562 42.2563 24.625 64 24.625C84.6391 24.625 101.559 40.5062 103.233 60.7188H83.4031C81.85 51.4219 73.7562 44.3125 64.0109 44.3125C53.1391 44.3125 44.3234 53.1172 44.3234 64Z" fill="black"/>
</svg>
