<svg width="512" height="512" viewBox="0 0 512 512" fill="none" xmlns="http://www.w3.org/2000/svg">
<g clip-path="url(#clip0_2346_130)">
<circle cx="257" cy="256" r="256" fill="#EDEDED"/>
<path d="M159.471 327L153.801 129.36H191.601L197.271 327H159.471ZM157.851 410.43L153.261 391.53C159.561 390.45 164.241 389.55 167.301 388.83C170.541 388.11 173.961 387.3 177.561 386.4L174.861 393.15C170.181 391.53 165.681 388.29 161.361 383.43C157.221 378.75 155.151 373.35 155.151 367.23C155.151 360.75 156.591 355.53 159.471 351.57C162.351 347.61 166.041 344.73 170.541 342.93C175.041 341.13 179.721 340.23 184.581 340.23C187.281 340.23 189.801 340.41 192.141 340.77C194.661 341.13 196.911 341.67 198.891 342.39L196.731 361.83C194.931 361.47 193.131 361.11 191.331 360.75C189.531 360.39 187.551 360.21 185.391 360.21C183.051 360.21 180.891 360.93 178.911 362.37C177.111 363.99 176.211 365.88 176.211 368.04C176.211 371.1 177.291 373.8 179.451 376.14C181.611 378.48 184.131 380.28 187.011 381.54C190.071 382.98 192.591 383.79 194.571 383.97L179.721 385.59C184.581 384.33 189.171 382.98 193.491 381.54C197.811 380.28 201.861 378.93 205.641 377.49L211.041 395.58C206.541 397.2 201.231 398.91 195.111 400.71C189.171 402.69 182.961 404.49 176.481 406.11C170.181 407.73 163.971 409.17 157.851 410.43ZM252.199 329.97C245.179 329.97 239.329 327.54 234.649 322.68C229.969 317.82 227.629 311.97 227.629 305.13C227.629 297.93 229.969 291.99 234.649 287.31C239.329 282.45 245.179 280.02 252.199 280.02C259.399 280.02 265.249 282.45 269.749 287.31C274.429 291.99 276.769 297.93 276.769 305.13C276.769 311.97 274.429 317.82 269.749 322.68C265.249 327.54 259.399 329.97 252.199 329.97ZM302.096 316.2L315.326 281.91C321.986 284.79 328.376 286.95 334.496 288.39C340.616 289.83 346.736 290.55 352.856 290.55C359.156 290.55 364.376 290.01 368.516 288.93C372.836 287.67 376.076 285.87 378.236 283.53C380.396 281.19 381.476 278.4 381.476 275.16C381.476 272.1 380.486 267.87 378.506 262.47C376.706 257.07 373.376 250.05 368.516 241.41C363.656 232.59 356.546 221.7 347.186 208.74L379.316 187.41C387.956 199.65 395.426 211.62 401.726 223.32C408.026 234.84 412.886 245.64 416.306 255.72C419.906 265.62 421.706 274.35 421.706 281.91C421.706 291.27 419.186 299.46 414.146 306.48C409.286 313.32 401.996 318.72 392.276 322.68C382.736 326.64 370.946 328.62 356.906 328.62C351.686 328.62 345.836 328.17 339.356 327.27C332.876 326.37 326.306 325.02 319.646 323.22C313.166 321.42 307.316 319.08 302.096 316.2Z" fill="#575A5E"/>
</g>
<defs>
<clipPath id="clip0_2346_130">
<rect width="512" height="512" fill="white"/>
</clipPath>
</defs>
</svg>
