<svg width="512" height="512" viewBox="0 0 512 512" fill="none" xmlns="http://www.w3.org/2000/svg">
<g clip-path="url(#clip0_2327_133)">
<circle cx="257" cy="256" r="256" fill="#EDEDED"/>
<g filter="url(#filter0_d_2327_133)">
<mask id="path-2-outside-1_2327_133" maskUnits="userSpaceOnUse" x="59" y="119" width="385" height="276" fill="black">
<rect fill="white" x="59" y="119" width="385" height="276"/>
<path d="M61.3418 363L145.342 151.2H187.942L271.042 363H221.242L157.642 187.2H174.742L110.242 363H61.3418ZM109.042 324.6V286.2H224.542V324.6H109.042ZM362.396 366.3C345.996 366.3 331.696 363.5 319.496 357.9C307.296 352.1 296.196 343.4 286.196 331.8L315.896 301.5C322.496 309.5 329.796 315.8 337.796 320.4C345.796 324.8 354.996 327 365.396 327C375.196 327 382.796 325.2 388.196 321.6C393.596 317.8 396.296 312.5 396.296 305.7C396.296 299.9 394.496 295.2 390.896 291.6C387.496 288 382.896 284.9 377.096 282.3C371.296 279.7 364.896 277.2 357.896 274.8C350.896 272.4 343.896 269.7 336.896 266.7C330.096 263.5 323.796 259.6 317.996 255C312.196 250.2 307.496 244.3 303.896 237.3C300.296 230.1 298.496 221.1 298.496 210.3C298.496 197.3 301.596 186.1 307.796 176.7C314.196 167.3 322.896 160.2 333.896 155.4C344.896 150.4 357.496 147.9 371.696 147.9C385.496 147.9 398.396 150.5 410.396 155.7C422.396 160.9 432.196 168 439.796 177L410.096 207.3C403.896 200.7 397.596 195.7 391.196 192.3C384.996 188.7 378.196 186.9 370.796 186.9C362.196 186.9 355.496 188.5 350.696 191.7C345.896 194.9 343.496 199.6 343.496 205.8C343.496 211.2 345.296 215.6 348.896 219C352.496 222.2 357.196 225 362.996 227.4C368.996 229.8 375.396 232.2 382.196 234.6C389.196 237 396.196 239.8 403.196 243C410.196 246.2 416.596 250.3 422.396 255.3C428.396 260.1 433.196 266.3 436.796 273.9C440.396 281.3 442.197 290.5 442.197 301.5C442.197 321.7 435.096 337.6 420.896 349.2C406.896 360.6 387.396 366.3 362.396 366.3ZM352.496 342.9H385.496V393.3H352.496V342.9ZM385.496 169.5H352.496V120.9H385.496V169.5Z"/>
</mask>
<path d="M61.3418 363L145.342 151.2H187.942L271.042 363H221.242L157.642 187.2H174.742L110.242 363H61.3418ZM109.042 324.6V286.2H224.542V324.6H109.042ZM362.396 366.3C345.996 366.3 331.696 363.5 319.496 357.9C307.296 352.1 296.196 343.4 286.196 331.8L315.896 301.5C322.496 309.5 329.796 315.8 337.796 320.4C345.796 324.8 354.996 327 365.396 327C375.196 327 382.796 325.2 388.196 321.6C393.596 317.8 396.296 312.5 396.296 305.7C396.296 299.9 394.496 295.2 390.896 291.6C387.496 288 382.896 284.9 377.096 282.3C371.296 279.7 364.896 277.2 357.896 274.8C350.896 272.4 343.896 269.7 336.896 266.7C330.096 263.5 323.796 259.6 317.996 255C312.196 250.2 307.496 244.3 303.896 237.3C300.296 230.1 298.496 221.1 298.496 210.3C298.496 197.3 301.596 186.1 307.796 176.7C314.196 167.3 322.896 160.2 333.896 155.4C344.896 150.4 357.496 147.9 371.696 147.9C385.496 147.9 398.396 150.5 410.396 155.7C422.396 160.9 432.196 168 439.796 177L410.096 207.3C403.896 200.7 397.596 195.7 391.196 192.3C384.996 188.7 378.196 186.9 370.796 186.9C362.196 186.9 355.496 188.5 350.696 191.7C345.896 194.9 343.496 199.6 343.496 205.8C343.496 211.2 345.296 215.6 348.896 219C352.496 222.2 357.196 225 362.996 227.4C368.996 229.8 375.396 232.2 382.196 234.6C389.196 237 396.196 239.8 403.196 243C410.196 246.2 416.596 250.3 422.396 255.3C428.396 260.1 433.196 266.3 436.796 273.9C440.396 281.3 442.197 290.5 442.197 301.5C442.197 321.7 435.096 337.6 420.896 349.2C406.896 360.6 387.396 366.3 362.396 366.3ZM352.496 342.9H385.496V393.3H352.496V342.9ZM385.496 169.5H352.496V120.9H385.496V169.5Z" fill="#575A5E"/>
<path d="M61.3418 363L60.4122 362.631L59.8694 364H61.3418V363ZM145.342 151.2V150.2H144.663L144.412 150.831L145.342 151.2ZM187.942 151.2L188.873 150.835L188.624 150.2H187.942V151.2ZM271.042 363V364H272.508L271.973 362.635L271.042 363ZM221.242 363L220.301 363.34L220.54 364H221.242V363ZM157.642 187.2V186.2H156.217L156.701 187.54L157.642 187.2ZM174.742 187.2L175.681 187.544L176.174 186.2H174.742V187.2ZM110.242 363V364H110.94L111.181 363.344L110.242 363ZM109.042 324.6H108.042V325.6H109.042V324.6ZM109.042 286.2V285.2H108.042V286.2H109.042ZM224.542 286.2H225.542V285.2H224.542V286.2ZM224.542 324.6V325.6H225.542V324.6H224.542ZM62.2714 363.369L146.271 151.569L144.412 150.831L60.4122 362.631L62.2714 363.369ZM145.342 152.2H187.942V150.2H145.342V152.2ZM187.011 151.565L270.111 363.365L271.973 362.635L188.873 150.835L187.011 151.565ZM271.042 362H221.242V364H271.042V362ZM222.182 362.66L158.582 186.86L156.701 187.54L220.301 363.34L222.182 362.66ZM157.642 188.2H174.742V186.2H157.642V188.2ZM173.803 186.856L109.303 362.656L111.181 363.344L175.681 187.544L173.803 186.856ZM110.242 362H61.3418V364H110.242V362ZM110.042 324.6V286.2H108.042V324.6H110.042ZM109.042 287.2H224.542V285.2H109.042V287.2ZM223.542 286.2V324.6H225.542V286.2H223.542ZM224.542 323.6H109.042V325.6H224.542V323.6ZM319.496 357.9L319.067 358.803L319.079 358.809L319.496 357.9ZM286.196 331.8L285.482 331.1L284.839 331.757L285.439 332.453L286.196 331.8ZM315.896 301.5L316.668 300.864L315.96 300.006L315.182 300.8L315.896 301.5ZM337.796 320.4L337.298 321.267L337.306 321.272L337.315 321.276L337.796 320.4ZM388.196 321.6L388.751 322.432L388.762 322.425L388.772 322.418L388.196 321.6ZM390.896 291.6L390.169 292.287L390.179 292.297L390.189 292.307L390.896 291.6ZM377.096 282.3L377.506 281.387L377.506 281.387L377.096 282.3ZM357.896 274.8L357.572 275.746L357.572 275.746L357.896 274.8ZM336.896 266.7L336.471 267.605L336.487 267.612L336.503 267.619L336.896 266.7ZM317.996 255L317.359 255.77L317.367 255.777L317.375 255.783L317.996 255ZM303.896 237.3L303.002 237.747L303.007 237.757L303.896 237.3ZM307.796 176.7L306.97 176.137L306.966 176.143L306.962 176.149L307.796 176.7ZM333.896 155.4L334.296 156.317L334.303 156.313L334.31 156.31L333.896 155.4ZM410.396 155.7L410.794 154.782L410.794 154.782L410.396 155.7ZM439.796 177L440.511 177.7L441.148 177.05L440.561 176.355L439.796 177ZM410.096 207.3L409.368 207.985L410.081 208.744L410.811 208L410.096 207.3ZM391.196 192.3L390.694 193.165L390.711 193.174L390.727 193.183L391.196 192.3ZM350.696 191.7L350.142 190.868L350.142 190.868L350.696 191.7ZM348.896 219L348.21 219.727L348.221 219.737L348.232 219.747L348.896 219ZM362.996 227.4L362.614 228.324L362.625 228.328L362.996 227.4ZM382.196 234.6L381.864 235.543L381.872 235.546L382.196 234.6ZM422.396 255.3L421.744 256.057L421.757 256.069L421.772 256.081L422.396 255.3ZM436.796 273.9L435.893 274.328L435.897 274.337L436.796 273.9ZM420.896 349.2L421.528 349.975L421.529 349.974L420.896 349.2ZM352.496 342.9V341.9H351.496V342.9H352.496ZM385.496 342.9H386.496V341.9H385.496V342.9ZM385.496 393.3V394.3H386.496V393.3H385.496ZM352.496 393.3H351.496V394.3H352.496V393.3ZM385.496 169.5V170.5H386.496V169.5H385.496ZM352.496 169.5H351.496V170.5H352.496V169.5ZM352.496 120.9V119.9H351.496V120.9H352.496ZM385.496 120.9H386.496V119.9H385.496V120.9ZM362.396 365.3C346.109 365.3 331.957 362.519 319.914 356.991L319.079 358.809C331.436 364.481 345.884 367.3 362.396 367.3V365.3ZM319.926 356.997C307.867 351.264 296.875 342.656 286.954 331.147L285.439 332.453C295.518 344.144 306.726 352.936 319.067 358.803L319.926 356.997ZM286.911 332.5L316.611 302.2L315.182 300.8L285.482 331.1L286.911 332.5ZM315.125 302.136C321.792 310.218 329.182 316.6 337.298 321.267L338.295 319.533C330.411 315 323.201 308.782 316.668 300.864L315.125 302.136ZM337.315 321.276C345.482 325.768 354.852 328 365.396 328V326C355.141 326 346.111 323.832 338.278 319.524L337.315 321.276ZM365.396 328C375.3 328 383.123 326.184 388.751 322.432L387.642 320.768C382.47 324.216 375.093 326 365.396 326V328ZM388.772 322.418C394.447 318.424 397.296 312.814 397.296 305.7H395.296C395.296 312.186 392.746 317.176 387.621 320.782L388.772 322.418ZM397.296 305.7C397.296 299.675 395.418 294.707 391.604 290.893L390.189 292.307C393.575 295.693 395.296 300.125 395.296 305.7H397.296ZM391.624 290.913C388.112 287.195 383.393 284.027 377.506 281.387L376.687 283.213C382.4 285.773 386.881 288.805 390.169 292.287L391.624 290.913ZM377.506 281.387C371.674 278.773 365.245 276.262 358.221 273.854L357.572 275.746C364.548 278.138 370.919 280.627 376.687 283.213L377.506 281.387ZM358.221 273.854C351.245 271.462 344.268 268.771 337.29 265.781L336.503 267.619C343.525 270.629 350.548 273.338 357.572 275.746L358.221 273.854ZM337.322 265.795C330.591 262.627 324.357 258.768 318.618 254.216L317.375 255.783C323.236 260.432 329.602 264.373 336.471 267.605L337.322 265.795ZM318.634 254.23C312.943 249.52 308.327 243.728 304.786 236.843L303.007 237.757C306.666 244.872 311.45 250.88 317.359 255.77L318.634 254.23ZM304.791 236.853C301.28 229.831 299.496 220.995 299.496 210.3H297.496C297.496 221.205 299.313 230.369 303.002 237.747L304.791 236.853ZM299.496 210.3C299.496 197.465 302.555 186.463 308.631 177.251L306.962 176.149C300.638 185.737 297.496 197.135 297.496 210.3H299.496ZM308.623 177.263C314.911 168.027 323.459 161.046 334.296 156.317L333.497 154.483C322.334 159.354 313.482 166.573 306.97 176.137L308.623 177.263ZM334.31 156.31C345.16 151.379 357.614 148.9 371.696 148.9V146.9C357.378 146.9 344.633 149.421 333.483 154.49L334.31 156.31ZM371.696 148.9C385.367 148.9 398.131 151.475 409.999 156.618L410.794 154.782C398.662 149.525 385.626 146.9 371.696 146.9V148.9ZM409.999 156.618C421.873 161.763 431.543 168.775 439.032 177.645L440.561 176.355C432.85 167.225 422.92 160.037 410.794 154.782L409.999 156.618ZM439.082 176.3L409.382 206.6L410.811 208L440.511 177.7L439.082 176.3ZM410.825 206.615C404.568 199.954 398.183 194.879 391.666 191.417L390.727 193.183C397.01 196.521 403.225 201.446 409.368 207.985L410.825 206.615ZM391.699 191.435C385.341 187.744 378.367 185.9 370.796 185.9V187.9C378.026 187.9 384.652 189.656 390.694 193.165L391.699 191.435ZM370.796 185.9C362.09 185.9 355.168 187.517 350.142 190.868L351.251 192.532C355.825 189.483 362.303 187.9 370.796 187.9V185.9ZM350.142 190.868C345.04 194.269 342.496 199.295 342.496 205.8H344.496C344.496 199.905 346.753 195.531 351.251 192.532L350.142 190.868ZM342.496 205.8C342.496 211.447 344.391 216.12 348.21 219.727L349.583 218.273C346.202 215.08 344.496 210.953 344.496 205.8H342.496ZM348.232 219.747C351.937 223.04 356.74 225.894 362.614 228.324L363.379 226.476C357.652 224.106 353.056 221.36 349.561 218.253L348.232 219.747ZM362.625 228.328C368.639 230.734 375.052 233.139 381.864 235.543L382.529 233.657C375.741 231.261 369.354 228.866 363.368 226.472L362.625 228.328ZM381.872 235.546C388.84 237.935 395.809 240.723 402.781 243.909L403.612 242.091C396.584 238.877 389.553 236.065 382.521 233.654L381.872 235.546ZM402.781 243.909C409.695 247.07 416.015 251.119 421.744 256.057L423.049 254.543C417.178 249.481 410.698 245.33 403.612 242.091L402.781 243.909ZM421.772 256.081C427.642 260.777 432.352 266.852 435.893 274.328L437.7 273.472C434.041 265.748 429.151 259.423 423.021 254.519L421.772 256.081ZM435.897 274.337C439.413 281.563 441.197 290.603 441.197 301.5H443.197C443.197 290.397 441.38 281.037 437.696 273.463L435.897 274.337ZM441.197 301.5C441.197 321.434 434.206 337.036 420.264 348.426L421.529 349.974C435.987 338.164 443.197 321.966 443.197 301.5H441.197ZM420.265 348.425C406.501 359.632 387.254 365.3 362.396 365.3V367.3C387.539 367.3 407.292 361.568 421.528 349.975L420.265 348.425ZM352.496 343.9H385.496V341.9H352.496V343.9ZM384.496 342.9V393.3H386.496V342.9H384.496ZM385.496 392.3H352.496V394.3H385.496V392.3ZM353.496 393.3V342.9H351.496V393.3H353.496ZM385.496 168.5H352.496V170.5H385.496V168.5ZM353.496 169.5V120.9H351.496V169.5H353.496ZM352.496 121.9H385.496V119.9H352.496V121.9ZM384.496 120.9V169.5H386.496V120.9H384.496Z" fill="black" mask="url(#path-2-outside-1_2327_133)"/>
</g>
</g>
<defs>
<filter id="filter0_d_2327_133" x="57.3418" y="120.9" width="388.854" height="280.4" filterUnits="userSpaceOnUse" color-interpolation-filters="sRGB">
<feFlood flood-opacity="0" result="BackgroundImageFix"/>
<feColorMatrix in="SourceAlpha" type="matrix" values="0 0 0 0 0 0 0 0 0 0 0 0 0 0 0 0 0 0 127 0" result="hardAlpha"/>
<feOffset dy="4"/>
<feGaussianBlur stdDeviation="2"/>
<feComposite in2="hardAlpha" operator="out"/>
<feColorMatrix type="matrix" values="0 0 0 0 0 0 0 0 0 0 0 0 0 0 0 0 0 0 0.25 0"/>
<feBlend mode="normal" in2="BackgroundImageFix" result="effect1_dropShadow_2327_133"/>
<feBlend mode="normal" in="SourceGraphic" in2="effect1_dropShadow_2327_133" result="shape"/>
</filter>
<clipPath id="clip0_2327_133">
<rect width="512" height="512" fill="white"/>
</clipPath>
</defs>
</svg>
