<svg width="512" height="512" viewBox="0 0 512 512" fill="none" xmlns="http://www.w3.org/2000/svg">
<g clip-path="url(#clip0_2280_157)">
<circle cx="257" cy="256" r="256" fill="#EDEDED"/>
<path d="M120.279 339.42C108.985 339.42 98.3519 337.367 88.3786 333.26C78.5519 329.153 69.9719 323.507 62.6386 316.32C55.3053 308.987 49.5119 300.48 45.2586 290.8C41.1519 280.973 39.0986 270.413 39.0986 259.12C39.0986 247.827 41.2253 237.34 45.4786 227.66C49.7319 217.98 55.5986 209.547 63.0786 202.36C70.7053 195.027 79.5786 189.38 89.6986 185.42C99.8186 181.313 110.672 179.26 122.259 179.26C135.605 179.26 147.705 181.68 158.559 186.52C169.559 191.36 178.652 198.033 185.839 206.54L162.299 230.08C157.312 223.627 151.445 218.787 144.699 215.56C137.952 212.333 130.325 210.72 121.819 210.72C112.725 210.72 104.585 212.773 97.3986 216.88C90.2119 220.84 84.5653 226.487 80.4586 233.82C76.4986 241.007 74.5186 249.44 74.5186 259.12C74.5186 268.8 76.4986 277.307 80.4586 284.64C84.4186 291.973 89.8453 297.693 96.7386 301.8C103.632 305.907 111.552 307.96 120.499 307.96C129.592 307.96 137.292 306.273 143.599 302.9C150.052 299.38 154.965 294.393 158.339 287.94C161.859 281.34 163.619 273.347 163.619 263.96L186.499 279.36L117.199 278.26V249H198.819V254.06C198.819 272.687 195.445 288.38 188.699 301.14C182.099 313.753 172.859 323.287 160.979 329.74C149.245 336.193 135.679 339.42 120.279 339.42ZM201.433 337L263.033 181.68H294.273L355.213 337H318.693L272.053 208.08H284.593L237.293 337H201.433ZM236.413 308.84V280.68H321.113V308.84H236.413ZM415.28 339.42C402.52 339.42 391.52 337.367 382.28 333.26C373.186 329.007 364.826 322.627 357.2 314.12L379.64 291.9C384.626 297.62 390.126 302.093 396.14 305.32C402.3 308.4 409.413 309.94 417.48 309.94C424.813 309.94 430.46 308.62 434.42 305.98C438.526 303.34 440.58 299.673 440.58 294.98C440.58 290.727 439.26 287.28 436.62 284.64C433.98 282 430.46 279.727 426.06 277.82C421.806 275.913 417.04 274.08 411.76 272.32C406.626 270.56 401.493 268.58 396.36 266.38C391.226 264.033 386.46 261.173 382.06 257.8C377.806 254.28 374.36 249.953 371.72 244.82C369.08 239.54 367.76 232.94 367.76 225.02C367.76 215.487 370.033 207.273 374.58 200.38C379.273 193.487 385.726 188.28 393.94 184.76C402.153 181.093 411.613 179.26 422.32 179.26C433.173 179.26 443.073 181.167 452.02 184.98C461.113 188.793 468.593 194 474.46 200.6L452.02 222.82C447.326 217.98 442.56 214.387 437.72 212.04C433.026 209.693 427.673 208.52 421.66 208.52C415.646 208.52 410.88 209.693 407.36 212.04C403.84 214.24 402.08 217.467 402.08 221.72C402.08 225.68 403.4 228.907 406.04 231.4C408.68 233.747 412.126 235.8 416.38 237.56C420.78 239.32 425.546 241.08 430.68 242.84C435.96 244.6 441.166 246.653 446.3 249C451.433 251.347 456.126 254.353 460.38 258.02C464.78 261.54 468.3 266.087 470.94 271.66C473.58 277.087 474.9 283.833 474.9 291.9C474.9 306.713 469.62 318.373 459.06 326.88C448.5 335.24 433.906 339.42 415.28 339.42Z" fill="#575A5E"/>
</g>
<defs>
<clipPath id="clip0_2280_157">
<rect width="512" height="512" fill="white"/>
</clipPath>
</defs>
</svg>
