<svg width="512" height="512" viewBox="0 0 512 512" fill="none" xmlns="http://www.w3.org/2000/svg">
<g clip-path="url(#clip0_1898_16083)">
<circle cx="257" cy="256" r="256" fill="#D9D9D9"/>
<rect x="107" y="83" width="207" height="344" rx="30" fill="#212121"/>
<rect x="136" y="117" width="149" height="111" rx="30" fill="#D9D9D9"/>
<rect x="85" y="392" width="251" height="35" rx="17.5" fill="#212121"/>
<path d="M369.5 102C369.5 102 390 122 400 132.5C409.608 142.588 411 151 411 164V349.5C411 360.5 401 374.5 382 374.5C363.5 374.5 354 361 354 349.5V241C354 228.5 347 218 333.5 218H308.5" stroke="#212121" stroke-width="35" stroke-linecap="round"/>
<circle cx="387" cy="158" r="31" fill="#212121"/>
</g>
<defs>
<clipPath id="clip0_1898_16083">
<rect width="512" height="512" fill="white"/>
</clipPath>
</defs>
</svg>
