<svg width="512" height="512" viewBox="0 0 512 512" fill="none" xmlns="http://www.w3.org/2000/svg">
<g clip-path="url(#clip0_2280_160)">
<circle cx="257" cy="256" r="256" fill="#EDEDED"/>
<path d="M198.441 386V214.15C198.441 197.583 201.941 183.117 208.941 170.75C216.175 158.383 226.091 148.817 238.691 142.05C251.525 135.283 265.875 131.9 281.741 131.9C297.841 131.9 311.725 135.05 323.391 141.35C335.291 147.65 344.625 155.817 351.391 165.85L316.741 200.5C312.308 193.967 307.641 189.067 302.741 185.8C298.075 182.533 291.891 180.9 284.191 180.9C278.125 180.9 272.758 182.3 268.091 185.1C263.425 187.667 259.808 191.4 257.241 196.3C254.675 200.967 253.391 206.683 253.391 213.45V386H198.441ZM165.191 386V337.7H344.741V386H165.191ZM165.191 284.85V244.6H314.641V284.85H165.191Z" fill="#575A5E"/>
</g>
<defs>
<clipPath id="clip0_2280_160">
<rect width="512" height="512" fill="white"/>
</clipPath>
</defs>
</svg>
