<svg width="512" height="512" viewBox="0 0 512 512" fill="none" xmlns="http://www.w3.org/2000/svg">
<g clip-path="url(#clip0_2276_143)">
<circle cx="257" cy="256" r="256" fill="#EDEDED"/>
<path d="M207.64 284.15V243.55H259.79C270.757 243.55 279.157 240.75 284.99 235.15C291.057 229.55 294.09 221.967 294.09 212.4C294.09 203.533 291.173 196.183 285.34 190.35C279.507 184.517 271.107 181.6 260.14 181.6H207.64V138.9H266.44C282.773 138.9 297.123 142.05 309.49 148.35C321.857 154.417 331.54 162.933 338.54 173.9C345.54 184.867 349.04 197.467 349.04 211.7C349.04 226.167 345.54 238.883 338.54 249.85C331.54 260.583 321.74 268.983 309.14 275.05C296.54 281.117 281.723 284.15 264.69 284.15H207.64ZM165.64 386V138.9H220.59V386H165.64ZM300.04 386L223.04 279.6L273.44 265.95L365.14 386H300.04Z" fill="#575A5E"/>
</g>
<defs>
<clipPath id="clip0_2276_143">
<rect width="512" height="512" fill="white"/>
</clipPath>
</defs>
</svg>
