<svg width="128" height="128" viewBox="0 0 128 128" fill="none" xmlns="http://www.w3.org/2000/svg">
<path fill-rule="evenodd" clip-rule="evenodd" d="M128 63.9999C128 99.3465 99.3465 128 64.0001 128C28.6538 128 0 99.3465 0 63.9999C0 28.6538 28.6538 3.13582e-06 64.0001 3.13582e-06C99.3465 3.13582e-06 128 28.6538 128 63.9999ZM41.5572 52.8662L30.6351 63.8154L41.5511 74.7573C41.9184 75.1264 42.1203 75.6158 42.1203 76.1369C42.1203 77.2166 41.2423 78.0939 40.1634 78.0939C39.6311 78.0939 39.1322 77.881 38.7455 77.4812L27.843 66.5917L16.8989 77.521C16.5298 77.8903 16.0386 78.0926 15.5174 78.0926C14.4387 78.0926 13.5605 77.2166 13.5605 76.1369C13.5605 75.6082 13.7698 75.1133 14.1534 74.7355L25.0684 63.8001L14.1478 52.8811C13.7707 52.5089 13.5605 52.0151 13.5605 51.4888C13.5605 50.4099 14.4387 49.5333 15.5174 49.5333C16.0377 49.5333 16.5285 49.7345 16.8989 50.0997L27.86 61.0231C27.86 61.0231 38.7712 50.1182 38.7723 50.116C39.1442 49.7395 39.6374 49.5333 40.1634 49.5333C41.2434 49.5333 42.1213 50.4104 42.1213 51.4904C42.1213 52.0086 41.9193 52.4972 41.5572 52.8662ZM95.5664 63.8122C95.5664 65.7732 97.1609 67.3683 99.1242 67.3683C101.083 67.3683 102.678 65.7732 102.678 63.8122C102.678 61.8509 101.083 60.2559 99.1242 60.2559C97.1609 60.2559 95.5664 61.8509 95.5664 63.8122ZM99.1195 53.5145C93.4403 53.5145 88.8208 58.1349 88.8208 63.8135C88.8208 69.4908 93.4403 74.1092 99.1195 74.1092C104.796 74.1092 109.417 69.4908 109.417 63.8135C109.417 58.1349 104.796 53.5145 99.1195 53.5145ZM99.1195 78.1613C91.2069 78.1613 84.7695 71.7248 84.7695 63.8135C84.7695 55.9012 91.2069 49.4629 99.1195 49.4629C107.032 49.4629 113.473 55.9012 113.473 63.8135C113.473 71.7248 107.032 78.1613 99.1195 78.1613ZM83.7515 49.7088L83.1494 49.707C81.342 49.707 79.5988 50.2771 78.1428 51.3991C77.951 50.5211 77.1662 49.8605 76.2315 49.8605C75.1557 49.8605 74.2936 50.7225 74.291 51.8006L74.2975 75.9694C74.3004 77.0454 75.1781 77.9201 76.2546 77.9201C77.3308 77.9201 78.2083 77.0454 78.2112 75.967L78.212 61.1062C78.212 56.1531 78.6649 54.1528 82.9077 53.6226C83.2915 53.5749 83.7081 53.5811 83.7275 53.5814L83.7282 53.5814C84.8892 53.5416 85.7141 52.7438 85.7141 51.6656C85.7141 50.5867 84.8334 49.7088 83.7515 49.7088ZM46.1806 61.3316C46.1784 61.3719 46.1762 61.4121 46.1762 61.4512H66.3165C65.2384 56.8772 61.1337 53.472 56.2309 53.472C51.3867 53.472 47.3191 56.7956 46.183 61.2868C46.1823 61.3017 46.1814 61.3167 46.1806 61.3316ZM63.9662 51.7033C67.2948 53.8095 69.4806 57.0891 70.3239 61.0817C70.7402 63.342 69.233 65.3187 66.4327 65.3774C66.4327 65.3774 47.1832 65.3807 46.0064 65.3807C46.0103 65.4748 46.0201 65.5769 46.0334 65.6827C46.1351 66.2484 46.2809 66.7977 46.4702 67.3273C47.5536 70.1633 50.5995 74.1366 56.2916 74.1999C58.0307 74.1901 59.6666 73.7518 61.1021 72.985C62.2302 72.3548 63.1717 71.5425 63.9305 70.7039C64.1824 70.4033 64.4113 70.1026 64.6164 69.8104C65.5707 68.5882 66.7835 68.8127 67.506 69.3664C68.3625 70.0227 68.5071 71.3974 67.7276 72.3642C67.7144 72.3801 67.7011 72.3945 67.6879 72.4088C67.6784 72.4191 67.6689 72.4294 67.6595 72.4402C66.5364 73.8487 65.3767 75.0254 63.9886 75.9177C62.6513 76.7747 61.1999 77.383 59.6999 77.748C57.9543 78.2 56.2685 78.3004 54.5367 78.0907C48.7004 77.3763 43.8053 73.0657 42.3578 67.3715C42.0686 66.2266 41.9297 65.0635 41.9297 63.9112C41.9297 59.3157 44.1426 54.8544 47.976 52.1273C52.6757 48.7852 59.1007 48.6143 63.9662 51.7033Z" fill="white"/>
</svg>
