<svg width="128" height="128" viewBox="0 0 128 128" fill="none" xmlns="http://www.w3.org/2000/svg">
<path d="M60.657 21.1111C70.0761 20.5045 79.6547 22.3883 88.1159 26.6029C100.6 32.7332 110.53 43.8126 115.223 56.8715C117.299 62.6506 118.416 68.749 118.416 74.8794V97.6446C118.416 98.5706 118.448 99.5285 118.225 100.422C117.714 102.721 116.086 104.733 113.914 105.723C112.414 106.425 110.69 106.521 109.093 106.265C105.613 105.627 102.931 102.37 102.899 98.8579C102.867 91.8017 102.899 84.7454 102.899 77.6572C102.963 75.6456 102.963 73.5064 101.877 71.7503C100.121 68.4936 95.8427 66.9291 92.4263 68.3339C89.5207 69.3557 87.4134 72.2931 87.3815 75.3902C87.3496 82.5742 87.3815 89.7263 87.3815 96.8784C87.3815 98.2194 87.4454 99.5923 87.0622 100.869C86.3278 103.392 84.2205 105.435 81.6982 106.138C78.3776 107.064 74.578 105.595 72.8858 102.53C71.7364 100.678 71.8321 98.4429 71.8641 96.3994C71.8321 89.2793 71.896 82.1591 71.8321 75.039C71.7683 71.431 68.7989 68.1743 65.1909 67.6954C62.8601 67.3441 60.4016 68.1104 58.7094 69.7707C57.1768 71.2075 56.3147 73.2829 56.3147 75.3902V96.144C56.2828 97.9001 56.5063 99.6881 55.8358 101.316C54.814 104.286 51.8127 106.457 48.6518 106.361C45.427 106.553 42.266 104.318 41.2443 101.285C40.6696 99.7839 40.7973 98.1874 40.7973 96.591C40.7973 89.4389 40.8292 82.2869 40.7973 75.1029C40.7653 71.5588 38.0195 68.3339 34.5392 67.6954C31.4102 67.0249 27.9299 68.6213 26.3335 71.463C25.663 72.6443 25.3118 74.0173 25.3118 75.3583V98.6025C25.3437 100.869 24.29 103.104 22.5659 104.541C19.9477 106.84 15.7012 106.968 12.9234 104.861C10.9118 103.488 9.73047 101.157 9.73047 98.7302V75.1986C9.7624 66.2905 11.9974 57.4143 16.244 49.5917C19.7242 43.2059 24.4816 37.4906 30.1969 32.9567C38.8177 25.9643 49.6096 21.7816 60.657 21.1111Z" fill="white"/>
</svg>
