<svg width="128" height="128" viewBox="0 0 128 128" fill="none" xmlns="http://www.w3.org/2000/svg">
<path d="M111.457 29.5295C108.87 28.4588 105.936 29.039 103.962 31.0247L79.7494 55.3589V69.4434L105.8 43.298V89.5277H61.3485L56.0522 80.896L47.4891 89.5277H47.4704L37.5622 99.499H108.851C112.61 99.4803 115.698 96.3861 115.698 92.57V35.9114C115.698 33.1002 114.039 30.6002 111.452 29.5295H111.457Z" fill="#E1E1E1"/>
<path d="M35.9035 89.5234L66.3078 58.93V86.3442H76.216V51.5623C76.216 48.751 74.5567 46.2511 71.9696 45.1804C69.3824 44.1097 66.4484 44.6898 64.4754 46.6756L12 99.476H33.3163L43.2245 89.5234H35.9035Z" fill="white"/>
</svg>
