<svg width="139" height="95" viewBox="0 0 139 95" fill="none" xmlns="http://www.w3.org/2000/svg">
<path d="M133.315 0.709777C129.847 -0.725456 125.914 0.0522242 123.269 2.71403L90.8134 35.3323V54.2116L125.732 19.1654V81.1332H66.1482L59.0489 69.5629L47.5707 81.1332H47.5456L34.2643 94.499H129.822C134.861 94.474 139 90.3263 139 85.2112V9.26424C139 5.49597 136.776 2.14501 133.308 0.709777H133.315Z" fill="#E1E1E1"/>
<path d="M32.041 81.1275L72.7958 40.1191V76.866H86.077V30.2432C86.077 26.475 83.8529 23.124 80.385 21.6888C76.9171 20.2536 72.9843 21.0312 70.3396 23.693L0 94.4683H28.573L41.8543 81.1275H32.041Z" fill="white"/>
</svg>
