<svg width="128" height="128" viewBox="0 0 128 128" fill="none" xmlns="http://www.w3.org/2000/svg">
<path fill-rule="evenodd" clip-rule="evenodd" d="M120 64C120 94.9279 94.9279 120 64 120C33.0721 120 8 94.9279 8 64C8 33.0721 33.0721 8 64 8C94.9279 8 120 33.0721 120 64ZM63.9992 40.9782L47.6815 57.2959L38.1895 47.8039L63.9992 21.9941L89.809 47.8191L80.3169 57.3111L63.9992 40.9782ZM21.998 63.9932L31.4893 54.5016L40.9809 63.9928L31.4896 73.4844L21.998 63.9932ZM64.0008 87.0205L47.683 70.7027L38.1758 80.1795L38.191 80.1947L64.0008 106.005L89.8105 80.1795H89.8258L80.3185 70.6875L64.0008 87.0205ZM87.0176 64.0088L96.5088 54.5172L106 64.0084L96.5092 73.5L87.0176 64.0088ZM63.9998 54.3564L73.629 64.0008L63.9998 73.6452L54.3707 64.0161L54.3555 64.0008L54.3707 63.9856L56.0619 62.2944L56.8846 61.4869L63.9998 54.3564Z" fill="white"/>
</svg>
