<svg width="128" height="128" viewBox="0 0 128 128" fill="none" xmlns="http://www.w3.org/2000/svg">
<path fill-rule="evenodd" clip-rule="evenodd" d="M77.7978 112.089L67.4366 118.072C65.2323 119.344 62.6189 119.26 60.5599 118.077L60.5555 118.086L39.723 106.057C39.5954 105.982 39.4722 105.907 39.3535 105.828L18.8774 94.0061C16.6775 92.7302 15.4456 90.4204 15.45 88.0446H15.4368V63.9871C15.4368 63.8464 15.4412 63.7056 15.45 63.5692V59.9614L29.2122 52.0156V63.5692C29.221 63.7144 29.2254 63.8595 29.2254 64.0047V84.0848L77.7978 112.089Z" fill="white"/>
<path fill-rule="evenodd" clip-rule="evenodd" d="M98.6962 27.9717L109.115 33.9904C111.314 35.2663 112.546 37.5762 112.542 39.952H112.555V64.0094C112.555 64.1502 112.551 64.2866 112.542 64.4274V88.0404C112.546 90.5922 111.161 92.8229 109.101 94.0152L84.7845 108.055L71.0179 100.104L98.7798 84.0763L98.6962 27.9717Z" fill="white"/>
<path fill-rule="evenodd" clip-rule="evenodd" d="M67.4368 9.91085L88.2693 21.9352C88.3969 22.01 88.52 22.0847 88.6388 22.1639L91.7054 23.9326V39.8242L81.7577 34.0827C81.6346 34.0211 81.5114 33.9551 81.3882 33.8847L63.9831 23.8358L15.4503 51.8881V39.9562C15.4459 37.4044 16.8318 35.1738 18.8908 33.9815L60.5557 9.92405C62.76 8.65254 65.3734 8.73614 67.4324 9.91965L67.4368 9.91085Z" fill="white"/>
<path d="M63.9168 92.343C58.3204 92.343 53.252 90.0728 49.5827 86.4035C45.9134 82.7342 43.6431 77.6657 43.6431 72.0693C43.6431 62.852 43.6871 53.6655 43.6519 44.3338L55.6806 37.3911L55.553 53.4719L55.5486 53.5995C58.1005 52.4424 60.9338 51.7956 63.9168 51.7956C69.5132 51.7956 74.5816 54.0659 78.251 57.7352C81.9203 61.4045 84.1905 66.473 84.1905 72.0693C84.1905 77.6657 81.9203 82.7342 78.251 86.4035C74.5816 90.0728 69.5132 92.343 63.9168 92.343ZM57.9817 78.0045C59.4996 79.5224 61.5982 80.4639 63.9168 80.4639C66.2355 80.4639 68.3341 79.5268 69.852 78.0045C71.3699 76.4866 72.3114 74.388 72.3114 72.0693C72.3114 69.7507 71.3699 67.6521 69.852 66.1342C68.3341 64.6163 66.2355 63.6748 63.9168 63.6748C61.5982 63.6748 59.4996 64.6163 57.9817 66.1342C56.4638 67.6521 55.5222 69.7507 55.5222 72.0693C55.5222 74.388 56.4594 76.4866 57.9817 78.0045Z" fill="white"/>
</svg>
