<svg width="128" height="128" viewBox="0 0 128 128" fill="none" xmlns="http://www.w3.org/2000/svg">
<path d="M22.1714 109.134V122.81H101.676V109.134L22.1714 109.134Z" fill="#D2D2D2"/>
<path d="M22.1714 5V17.8748C30.0165 17.8748 36.2523 24.311 36.2523 32.156C36.2523 40.0011 30.0165 46.4373 22.1714 46.4373V58.1059C30.0165 58.1059 36.2523 64.5421 36.2523 72.3872V74.5992C36.2523 82.4442 30.0165 88.8844 22.1714 88.8844V101.755H75.4777C80.1043 101.755 84.126 101.152 87.948 99.7436C91.7699 98.5367 94.9892 96.7279 97.8054 94.314C100.622 91.9001 102.837 89.0855 104.245 85.867C105.854 82.6485 106.657 79.0269 106.657 75.0038C106.657 69.1703 105.25 64.3418 102.233 60.1175C99.2157 55.8932 95.1926 52.8759 90.1637 51.0655C94.1868 49.2551 97.2025 46.6401 99.6164 43.0192C102.03 39.3984 103.239 35.1726 103.239 30.3449C103.239 26.5229 102.431 23.104 101.023 20.0867C99.615 16.8682 97.4031 14.2532 94.7881 12.0405C92.173 9.82774 88.9559 8.01812 85.3351 6.81119C81.7143 5.60425 77.6912 5 73.2658 5H22.1714ZM49.7283 18.8805H70.4488C74.6731 18.8805 78.0913 20.0883 80.9075 22.7033C83.7237 25.1172 84.9306 28.5376 84.9306 32.5607C84.9306 36.5838 83.5225 39.8 80.9075 42.2138C78.0913 44.6277 74.6731 45.8362 70.4488 45.8362H49.7283V18.8805ZM49.7283 58.3063H72.26C76.8866 58.3063 80.7071 59.7144 83.7245 62.3294C86.5407 64.9445 87.948 68.5676 87.948 72.7919C88.1491 77.2173 86.7418 80.8358 83.7245 83.4508C80.9083 86.267 77.0877 87.4739 72.26 87.4739H49.7283V58.3063Z" fill="white"/>
</svg>
