<svg width="128" height="128" viewBox="0 0 128 128" fill="none" xmlns="http://www.w3.org/2000/svg">
<path d="M57.4484 119.618C57.832 119.234 57.4484 119.234 57.4484 119.618C57.832 119.234 57.832 119.234 57.4484 119.618Z" fill="#BDC1C4"/>
<path d="M63.5857 7.99316C48.6259 7.99316 34.8169 14.1305 24.0765 24.4873C13.7197 34.8441 7.96594 49.0367 7.96594 63.9965C7.96594 70.5174 9.1167 77.0384 11.4182 83.5593C12.569 83.5593 13.3361 83.5593 14.4869 83.5593C25.6108 83.5593 36.7348 87.0116 45.9408 93.5325C55.1468 100.053 62.0513 109.259 65.5036 120C80.0798 119.616 93.8889 113.479 103.862 103.122C113.835 92.7653 119.589 78.5727 119.589 64.3801C119.589 49.4203 113.835 35.2277 103.095 24.8709C92.7381 14.1305 78.5455 7.99316 63.5857 7.99316Z" fill="white"/>
<path d="M85.4501 92.7642C85.4501 94.2985 85.8337 95.8328 86.6009 96.6C87.368 97.3672 88.9024 97.7508 90.4367 97.7508C88.9024 97.7508 87.7516 98.1343 86.6009 98.9015C85.8337 99.6687 85.4501 101.203 85.4501 102.737C85.4501 101.203 85.0665 100.052 84.2993 98.9015C83.5322 98.1343 81.9978 97.7508 80.4635 97.7508C81.9978 97.7508 83.1486 97.3672 84.2993 96.6C85.4501 95.8328 85.4501 94.2985 85.4501 92.7642Z" fill="white"/>
<path d="M32.5153 65.9136C32.5153 67.4479 32.8989 68.9822 33.666 69.7494C34.4332 70.5166 35.9675 70.9002 37.5019 70.9002C35.9675 70.9002 34.8168 71.2838 33.666 72.0509C32.8989 72.8181 32.5153 74.3524 32.5153 75.8868C32.5153 74.3524 32.1317 73.2017 31.3645 72.0509C30.5974 71.2838 29.063 70.9002 27.5287 70.9002C29.063 70.9002 30.2138 70.5166 31.3645 69.7494C32.1317 68.5987 32.5153 67.4479 32.5153 65.9136Z" fill="white"/>
<path d="M46.7078 22.1865C47.0914 22.1865 47.0914 22.1865 46.7078 22.1865C46.7078 23.3373 47.0914 24.1044 47.8586 24.8716C48.6257 25.6388 49.3929 26.0224 50.5437 25.6388C49.3929 25.6388 48.6257 26.0224 47.8586 26.406C47.0914 27.1731 46.7078 27.9403 47.0914 29.091C47.0914 27.9403 46.7078 27.1731 46.3242 26.406C45.1735 26.0224 44.4063 25.6388 43.2556 26.0224C44.4063 25.6388 45.1735 25.6388 45.9406 24.8716C46.7078 24.1044 47.0914 22.9537 46.7078 22.1865Z" fill="white"/>
<path d="M89.6693 11.0615C84.2991 13.7466 78.1617 18.3496 72.7915 27.1721C63.2019 42.1319 60.5168 55.5573 60.5168 55.5573L67.4214 60.1603L68.5721 60.9275L75.8602 65.5305C75.8602 65.5305 86.9842 57.8588 96.5738 42.899C102.328 34.0766 104.245 26.4049 104.245 20.6511C101.177 20.2676 98.4917 19.1168 95.8066 17.5825C93.5051 16.0481 91.2036 13.7466 89.6693 11.0615Z" fill="#757575"/>
<path d="M85.8339 70.8999C89.2861 65.5298 86.9846 58.6252 85.8339 56.3237C83.1488 59.3924 80.0801 62.0775 77.0114 64.379C77.395 65.9133 78.1622 67.4477 78.1622 68.982C78.1622 69.3656 78.1622 69.7492 77.7786 70.1328C76.2442 72.4343 74.7099 75.1194 73.5592 77.8045C73.1756 78.188 73.1756 78.5716 73.1756 78.9552C72.792 79.7224 72.792 80.106 73.1756 80.8731C73.1756 82.0239 73.9427 82.7911 74.3263 83.9418L74.7099 84.3254C75.0935 84.3254 75.0935 84.709 75.4771 84.709C75.8607 84.709 75.8607 84.709 76.2442 84.3254C76.6278 83.9418 77.395 83.5582 77.7786 82.7911C80.8473 79.3388 81.998 77.4209 85.8339 70.8999Z" fill="#787878"/>
<path d="M63.9694 66.6823L57.4484 62.4629C49.7767 74.354 44.7901 89.3138 48.2424 91.2317C51.6947 93.5332 63.2022 82.7929 70.8739 70.9017L63.9694 66.6823Z" fill="#E7E7E7"/>
<path d="M64.3528 42.8994C61.6677 42.5158 54.7632 43.283 51.3109 48.6532C47.0915 54.7905 45.5572 56.7085 43.6392 60.9279C43.2557 61.6951 43.2557 62.0786 42.8721 62.8458C42.8721 63.2294 42.8721 63.2294 42.8721 63.613C42.8721 63.9966 43.2557 63.9966 43.2557 63.9966C43.2557 63.9966 43.6392 63.9966 44.0228 64.3801C45.1736 64.7637 46.3243 64.3801 47.0915 64.3801C47.8587 64.3801 48.2423 63.9966 48.6258 63.613C49.0094 63.2294 49.393 62.8458 49.7766 62.4622C51.6945 60.1607 53.2288 57.8592 54.7632 55.5577C55.1468 55.1741 55.5304 54.7905 55.9139 54.7905C57.4483 54.407 58.9826 54.4069 60.517 54.0234C61.6677 50.1875 62.8185 46.3517 64.3528 42.8994Z" fill="#878787"/>
<path d="M101.944 8.76067C101.177 8.37708 96.1906 7.9935 89.6697 11.4458C91.204 14.1308 93.5055 16.0488 95.807 17.9667C98.4921 19.501 101.177 20.6518 104.246 21.0354C104.629 13.7473 102.328 9.14425 101.944 8.76067Z" fill="white"/>
<path d="M76.6277 65.9137L59.7499 55.1733C59.3664 55.1733 59.3664 55.1733 58.9828 55.1733L55.5305 60.5435C55.5305 60.9271 55.5305 60.9271 55.5305 61.3107L72.4082 72.0511C72.7918 72.0511 72.7918 72.0511 73.1754 72.0511L76.6277 66.6809C76.6277 66.2973 76.6277 66.2973 76.6277 65.9137Z" fill="#C5C8CA"/>
<path d="M74.326 50.9546C72.7917 50.1874 66.2708 57.0919 62.0513 63.6129C58.9827 68.2159 56.6812 75.1204 57.8319 75.8876C59.3662 76.6547 64.3528 72.0517 67.4215 67.0651C71.6409 60.9278 75.4768 52.1053 74.326 50.9546Z" fill="#5B5B5B"/>
<path d="M87.368 39.4457C92.3546 39.4457 96.1905 35.6098 96.1905 30.6232C96.1905 25.6366 92.3546 21.8008 87.368 21.8008C82.3814 21.8008 78.5456 25.6366 78.5456 30.6232C78.5456 35.6098 82.765 39.4457 87.368 39.4457Z" fill="#9D9D9D"/>
<path d="M87.3682 35.9935C90.4368 35.9935 92.7384 33.692 92.7384 30.6233C92.7384 27.5546 90.4368 25.6367 87.3682 25.6367C84.2995 25.6367 81.998 27.9382 81.998 31.0069C81.998 34.0756 84.6831 35.9935 87.3682 35.9935Z" fill="url(#paint0_linear_2150_18765)"/>
<path d="M14.1035 83.1743C12.9528 83.1743 12.1856 83.1743 11.0349 83.1743C14.8707 93.9147 22.1588 103.121 31.3648 109.642C40.5709 116.163 51.6948 119.615 63.2023 119.615C63.5859 119.615 64.3531 119.615 64.7367 119.615C61.2844 108.874 54.3799 99.6684 45.1739 93.1475C36.3514 86.6266 25.6111 83.1743 14.1035 83.1743Z" fill="#999999"/>
<defs>
<linearGradient id="paint0_linear_2150_18765" x1="83.026" y1="27.8826" x2="91.8009" y2="33.5666" gradientUnits="userSpaceOnUse">
<stop stop-color="#CED1EC"/>
<stop offset="1" stop-color="white"/>
</linearGradient>
</defs>
</svg>
