<svg width="129" height="128" viewBox="0 0 129 128" fill="none" xmlns="http://www.w3.org/2000/svg">
<path d="M32.0623 87.2791C34.3688 81.2682 38.7722 76.3057 44.5035 73.3003L54.2887 78.8918C58.2028 81.1284 57.364 87.2092 53.8693 89.2362L33.9495 100.629C32.8312 101.258 31.3634 100.839 30.8042 99.6504C30.6645 99.3708 30.5946 99.0912 30.5247 98.8117C30.1053 94.8976 30.6645 90.9835 32.0623 87.2791Z" fill="#BEBEBE"/>
<path d="M63.1651 61.2086C63.1651 57.8537 61.4178 54.7084 58.622 52.8213L3.75513 21.5786C3.96481 27.0304 5.01324 32.4821 6.83049 37.6543C11.0241 49.047 19.1319 58.6924 29.6859 64.913L54.1488 78.8918C58.0629 81.1284 57.2241 87.2791 53.7294 89.2361L59.8801 85.7414C61.8372 84.6231 63.0254 82.5962 63.0254 80.3596V73.2304C63.0254 73.1605 63.1651 61.2086 63.1651 61.2086Z" fill="white"/>
<path opacity="0.2" d="M54.1489 78.8918L44.3637 73.3003C44.3637 73.3003 50.5843 78.5423 52.9607 81.1983C55.2672 83.7844 53.7295 89.1663 53.7295 89.1663C57.2941 87.349 58.063 81.1284 54.1489 78.8918Z" fill="#909090"/>
<path d="M97.7627 39.8206C95.4562 45.8315 91.0529 50.794 85.3216 53.7994L75.5364 48.2079C71.6223 45.9713 72.4611 39.8905 75.9558 37.8635L95.8756 26.4708C96.9939 25.8418 98.4617 26.2611 99.0209 27.4493C99.1606 27.7289 99.2305 28.0085 99.3004 28.288C99.6499 32.2021 99.0907 36.1162 97.7627 39.8206Z" fill="#BEBEBE"/>
<path d="M66.59 65.8913C66.59 69.2462 68.3373 72.3915 71.1331 74.2786L126 105.521C125.79 100.07 124.742 94.6178 122.925 89.4456C118.731 78.0529 110.623 68.4075 100.069 62.1869L75.6063 48.2081C71.6923 45.9715 72.531 39.8208 76.0257 37.8638L69.875 41.3585C67.918 42.4768 66.7298 44.5037 66.7298 46.7403V53.8695C66.7298 53.9394 66.59 65.8913 66.59 65.8913Z" fill="white"/>
<path opacity="0.2" d="M75.6063 48.2085L85.3915 53.8001C85.3915 53.8001 79.1709 48.558 76.7945 45.902C74.488 43.3159 76.0257 37.9341 76.0257 37.9341C72.4611 39.7513 71.6922 45.9719 75.6063 48.2085Z" fill="#909090"/>
</svg>
