<svg width="128" height="128" viewBox="0 0 128 128" fill="none" xmlns="http://www.w3.org/2000/svg">
<path fill-rule="evenodd" clip-rule="evenodd" d="M117.051 49.4898H119V9H78.4644V10.9386C87.712 13.4333 96.1417 18.3144 102.909 25.0927C109.675 31.8481 114.551 40.2606 117.049 49.4898M9 64.0969C9.02529 78.1562 14.3862 92.207 25.0891 102.909C35.8172 113.635 49.9086 119 64 119V9C49.9086 9 35.8172 14.3649 25.0891 25.0927C14.3862 35.7951 9.02529 49.8459 9 63.9031V64.0969ZM117.051 78.5102H119V118.998H78.4644V117.061C87.7117 114.566 96.1411 109.685 102.909 102.907C109.675 96.1513 114.55 87.7391 117.049 78.5102" fill="white"/>
</svg>
