<svg width="128" height="128" viewBox="0 0 128 128" fill="none" xmlns="http://www.w3.org/2000/svg">
<path d="M63.8504 123.333L12.7008 93.8163V34.7839L63.8504 5.26767L115 34.7839V93.8163L63.8504 123.333ZM16.4052 91.6826L63.8504 119.055L111.296 91.6727V36.9176L63.8504 9.54494L16.415 36.9275V91.6826H16.4052Z" fill="white"/>
<path d="M83.3106 98.9727H76.297L67.9005 91.2676V87.3163L76.5934 79.0186V65.8805L87.9534 58.4718L100.894 68.2513L83.3106 98.9727Z" fill="white"/>
<path d="M63.7517 78.2285H54.2686L55.5528 65.8807L51.3051 54.8171H76.3959L72.247 65.8807L73.4324 78.2285H63.7517Z" fill="white"/>
<path d="M59.9979 91.268L51.6014 99.0718H44.4891L26.807 68.2516L39.8463 58.5709L51.3051 65.8809V79.0189L59.9979 87.3167V91.268Z" fill="white"/>
<path d="M44.3903 31.9984H83.2118L87.8546 51.7549H39.8463L44.3903 31.9984Z" fill="white"/>
</svg>
