<svg width="129" height="128" viewBox="0 0 129 128" fill="none" xmlns="http://www.w3.org/2000/svg">
<path d="M103.187 20.349H107.791V106.792H54.095V48.4599C54.095 45.0498 51.3306 42.2854 47.9205 42.2854C44.5104 42.2854 41.746 45.0498 41.746 48.4599V112.966C41.746 116.377 44.5104 119.141 47.9205 119.141H113.966C117.376 119.141 120.141 116.377 120.141 112.966V14.1745C120.141 10.7644 117.376 8 113.966 8H103.187C99.7769 8 97.0124 10.7644 97.0124 14.1745C97.0124 17.5845 99.7769 20.349 103.187 20.349Z" fill="#D5D5D5"/>
<path d="M25.9536 106.792H21.349V20.349H75.0439V78.6808C75.0439 82.0911 77.8083 84.8555 81.2182 84.8555C84.6286 84.8555 87.393 82.0911 87.393 78.6808V14.1745C87.393 10.7644 84.6286 8 81.2182 8H15.1745C11.7644 8 9 10.7644 9 14.1745V112.966C9 116.376 11.7644 119.141 15.1745 119.141H25.9536C29.3637 119.141 32.1281 116.376 32.1281 112.966C32.1281 109.556 29.3637 106.792 25.9536 106.792Z" fill="white"/>
</svg>
