<svg width="128" height="128" viewBox="0 0 128 128" fill="none" xmlns="http://www.w3.org/2000/svg">
<path fill-rule="evenodd" clip-rule="evenodd" d="M64 120C94.9279 120 120 94.9279 120 64C120 33.0721 94.9279 8 64 8C33.0721 8 8 33.0721 8 64C8 94.9279 33.0721 120 64 120ZM84.7473 42.0348V41.4304V41.4063V41.3821H103V41.9865C100.826 43.0391 98.9355 44.5977 97.4879 46.5315C95.2001 49.6325 93.27 52.9819 91.734 56.5161L77.422 87.5093H76.7451L64.7056 59.4897L50.6595 87.5335H49.9826L34.3893 52.6479C32.8904 49.3601 31.3673 46.8941 29.7959 45.2985C28.2487 43.7029 26.4839 42.5909 24.5498 42.0106V41.4063H49.1123V42.0106C48.1936 42.3733 47.4684 42.8326 46.9848 43.4128C46.5013 43.9931 46.2596 44.6458 46.2596 45.3469C46.2635 45.7475 46.3204 46.1458 46.4288 46.5315C46.5755 47.0399 46.7867 47.5274 47.0574 47.982L57.2112 71.5775L64.0287 57.9908L60.1606 48.9732C59.4111 47.1601 58.7342 45.7821 58.154 44.8392C57.5496 43.8964 56.8969 43.2436 56.2441 42.8568C55.5672 42.4942 54.7694 42.2041 53.8507 42.0348V41.4304H77.9539V42.0348C75.5847 42.4458 74.4242 43.7029 74.4242 45.8304C74.6242 47.6007 75.0718 49.3341 75.7539 50.9798L83.8286 70.5621L85.4725 66.9358C86.8599 64.192 88.0163 61.3375 88.9297 58.4018C89.7275 55.7424 90.1385 53.1315 90.1385 50.5447C90.1385 48.0787 89.6791 46.1689 88.7604 44.7909C87.8282 43.389 86.3903 42.4016 84.7473 42.0348Z" fill="white"/>
</svg>
