<svg width="512" height="512" viewBox="0 0 512 512" fill="none" xmlns="http://www.w3.org/2000/svg">
<g clip-path="url(#clip0_2327_136)">
<circle cx="257" cy="256" r="256" fill="#2D2E31"/>
<path d="M61.8418 367L145.842 155.2H188.442L271.542 367H221.742L158.142 191.2H175.242L110.742 367H61.8418ZM109.542 328.6V290.2H225.042V328.6H109.542ZM362.896 370.3C346.496 370.3 332.196 367.5 319.996 361.9C307.796 356.1 296.696 347.4 286.696 335.8L316.396 305.5C322.996 313.5 330.296 319.8 338.296 324.4C346.296 328.8 355.496 331 365.896 331C375.696 331 383.296 329.2 388.696 325.6C394.096 321.8 396.796 316.5 396.796 309.7C396.796 303.9 394.996 299.2 391.396 295.6C387.996 292 383.396 288.9 377.596 286.3C371.796 283.7 365.396 281.2 358.396 278.8C351.396 276.4 344.396 273.7 337.396 270.7C330.596 267.5 324.296 263.6 318.496 259C312.696 254.2 307.996 248.3 304.396 241.3C300.796 234.1 298.996 225.1 298.996 214.3C298.996 201.3 302.096 190.1 308.296 180.7C314.696 171.3 323.396 164.2 334.396 159.4C345.396 154.4 357.996 151.9 372.196 151.9C385.996 151.9 398.896 154.5 410.896 159.7C422.896 164.9 432.696 172 440.296 181L410.596 211.3C404.396 204.7 398.096 199.7 391.696 196.3C385.496 192.7 378.696 190.9 371.296 190.9C362.696 190.9 355.996 192.5 351.196 195.7C346.396 198.9 343.996 203.6 343.996 209.8C343.996 215.2 345.796 219.6 349.396 223C352.996 226.2 357.696 229 363.496 231.4C369.496 233.8 375.896 236.2 382.696 238.6C389.696 241 396.696 243.8 403.696 247C410.696 250.2 417.096 254.3 422.896 259.3C428.896 264.1 433.696 270.3 437.296 277.9C440.896 285.3 442.697 294.5 442.697 305.5C442.697 325.7 435.596 341.6 421.396 353.2C407.396 364.6 387.896 370.3 362.896 370.3ZM352.996 346.9H385.996V397.3H352.996V346.9ZM385.996 173.5H352.996V124.9H385.996V173.5Z" fill="white"/>
</g>
<defs>
<clipPath id="clip0_2327_136">
<rect width="512" height="512" fill="white"/>
</clipPath>
</defs>
</svg>
