<svg width="512" height="512" viewBox="0 0 512 512" fill="none" xmlns="http://www.w3.org/2000/svg">

<g transform="translate(0.000000,438.000000) scale(0.100000,-0.100000)"
fill="#2D2E31" stroke="none">
  
<path d="M2075 4103 c-701 -89 -1268 -518 -1547 -1168 -275 -642 -159 -1409
297 -1954 399 -477 1010 -734 1620 -681 419 36 795 196 1118 475 320 277 556
714 622 1153 20 130 19 414 -1 551 -76 525 -384 1014 -824 1308 -253 169 -483
258 -800 308 -88 14 -400 19 -485 8z m963 -1070 c4 -10 6 -57 6 -105 -2 -84
-1 -88 20 -88 39 0 170 -41 214 -66 54 -32 112 -82 112 -98 0 -21 -121 -176
-137 -176 -8 0 -33 15 -56 33 -40 32 -113 67 -140 67 -9 0 -12 -40 -12 -165
l0 -166 40 -10 c133 -34 215 -78 279 -150 106 -118 114 -337 17 -488 -57 -88
-136 -138 -262 -166 l-76 -16 1 -89 c0 -49 -3 -92 -7 -96 -9 -9 -152 -14 -189
-7 l-28 5 0 98 0 97 -51 7 c-68 9 -167 46 -228 86 -57 36 -141 124 -141 147 0
21 130 183 147 183 8 0 36 -24 63 -52 49 -54 160 -128 192 -128 17 0 18 13 16
186 l-3 187 -51 13 c-167 43 -275 133 -314 264 -26 87 -25 147 3 234 40 128
155 223 310 257 l57 12 0 97 c0 53 3 100 7 103 3 4 51 7 105 7 85 0 100 -3
106 -17z m-1073 -217 c111 -31 190 -98 237 -202 19 -40 23 -66 23 -149 -1 -93
-3 -104 -32 -161 -35 -68 -79 -109 -160 -151 -57 -30 -63 -38 -34 -48 30 -9
100 -91 122 -143 19 -43 169 -485 169 -497 0 -3 -65 -5 -144 -5 l-143 0 -73
223 c-40 122 -84 239 -97 259 -36 58 -71 72 -200 76 l-113 4 0 -281 0 -281
-140 0 -140 0 0 684 c0 643 1 685 18 690 9 2 159 3 332 2 260 -2 326 -6 375
-20z"/>
<path d="M2759 2576 c-45 -31 -63 -73 -56 -132 5 -51 41 -96 88 -113 l29 -10
0 140 c0 154 -1 156 -61 115z"/>
<path d="M3044 1840 c1 -155 2 -160 21 -154 36 12 72 43 89 78 22 47 21 123
-4 164 -19 31 -73 72 -96 72 -7 0 -10 -52 -10 -160z"/>
<path d="M1520 2430 l0 -170 158 0 c130 0 163 3 191 18 55 27 75 63 79 140 4
82 -17 126 -74 159 -36 21 -52 23 -196 23 l-158 0 0 -170z"/>
</g>
</svg>
