<svg width="512" height="512" viewBox="0 0 512 512" fill="none" xmlns="http://www.w3.org/2000/svg">
<g clip-path="url(#clip0_2280_178)">
<circle cx="257" cy="256" r="256" fill="#2D2E31"/>
<path d="M258.073 389.85C240.107 389.85 223.54 386.7 208.373 380.4C193.44 373.867 180.257 364.767 168.823 353.1C157.623 341.433 148.873 327.9 142.573 312.5C136.507 296.867 133.473 280.067 133.473 262.1C133.473 244.133 136.507 227.45 142.573 212.05C148.873 196.417 157.623 182.883 168.823 171.45C180.023 160.017 193.09 151.15 208.023 144.85C223.19 138.317 239.757 135.05 257.723 135.05C276.623 135.05 293.423 138.2 308.123 144.5C323.057 150.8 336.24 159.433 347.673 170.4L310.923 207.5C304.39 200.267 296.69 194.667 287.823 190.7C279.19 186.5 268.923 184.4 257.023 184.4C243.49 184.4 231.59 187.667 221.323 194.2C211.29 200.5 203.473 209.483 197.873 221.15C192.273 232.817 189.473 246.467 189.473 262.1C189.473 277.733 192.273 291.5 197.873 303.4C203.707 315.067 211.757 324.167 222.023 330.7C232.29 337 244.307 340.15 258.073 340.15C269.74 340.15 280.007 338.167 288.873 334.2C297.74 330.233 305.557 324.633 312.323 317.4L349.423 354.5C337.523 365.467 324.107 374.1 309.173 380.4C294.473 386.7 277.44 389.85 258.073 389.85ZM110.023 251.95V218.7H278.373L269.973 251.95H110.023ZM110.023 307.95V274.7H265.773L257.373 307.95H110.023Z" fill="white"/>
</g>
<defs>
<clipPath id="clip0_2280_178">
<rect width="512" height="512" fill="white"/>
</clipPath>
</defs>
</svg>
