<svg width="512" height="512" viewBox="0 0 512 512" fill="none" xmlns="http://www.w3.org/2000/svg">
<g clip-path="url(#clip0_2276_132)">
<circle cx="257" cy="256" r="256" fill="#2D2E31"/>
<path d="M214.193 386L154.693 297.8L213.843 215.9H273.693L202.293 307.95L204.043 285.9L277.193 386H214.193ZM105.343 386V131.9H158.893V386H105.343ZM290.939 386V215.9H344.489V386H290.939ZM344.489 292.55L322.089 275.05C326.522 255.217 333.989 239.817 344.489 228.85C354.989 217.883 369.572 212.4 388.239 212.4C396.406 212.4 403.522 213.683 409.589 216.25C415.889 218.583 421.372 222.317 426.039 227.45L394.189 267.7C391.856 265.133 388.939 263.15 385.439 261.75C381.939 260.35 377.972 259.65 373.539 259.65C364.672 259.65 357.556 262.45 352.189 268.05C347.056 273.417 344.489 281.583 344.489 292.55Z" fill="white"/>
</g>
<defs>
<clipPath id="clip0_2276_132">
<rect width="512" height="512" fill="white"/>
</clipPath>
</defs>
</svg>
