<svg width="512" height="512" viewBox="0 0 512 512" fill="none" xmlns="http://www.w3.org/2000/svg">
<g clip-path="url(#clip0_2280_169)">
<circle cx="257" cy="256" r="256" fill="#2D2E31"/>
<path d="M253.056 389.85C233.922 389.85 217.239 386.583 203.006 380.05C188.772 373.283 175.822 363.133 164.156 349.6L198.806 314.25C206.506 323.583 215.022 330.933 224.356 336.3C233.689 341.433 244.422 344 256.556 344C267.989 344 276.856 341.9 283.156 337.7C289.456 333.267 292.606 327.083 292.606 319.15C292.606 312.383 290.506 306.9 286.306 302.7C282.339 298.5 276.972 294.883 270.206 291.85C263.439 288.817 255.972 285.9 247.806 283.1C239.639 280.3 231.472 277.15 223.306 273.65C215.372 269.917 208.022 265.367 201.256 260C194.489 254.4 189.006 247.517 184.806 239.35C180.606 230.95 178.506 220.45 178.506 207.85C178.506 192.683 182.122 179.617 189.356 168.65C196.822 157.683 206.972 149.4 219.806 143.8C232.639 137.967 247.339 135.05 263.906 135.05C280.006 135.05 295.056 138.083 309.056 144.15C323.056 150.217 334.489 158.5 343.356 169L308.706 204.35C301.472 196.65 294.122 190.817 286.656 186.85C279.422 182.65 271.489 180.55 262.856 180.55C252.822 180.55 245.006 182.417 239.406 186.15C233.806 189.883 231.006 195.367 231.006 202.6C231.006 208.9 233.106 214.033 237.306 218C241.506 221.733 246.989 225 253.756 227.8C260.756 230.6 268.222 233.4 276.156 236.2C284.322 239 292.489 242.267 300.656 246C308.822 249.733 316.289 254.517 323.056 260.35C330.056 265.95 335.656 273.183 339.856 282.05C344.056 290.683 346.156 301.417 346.156 314.25C346.156 337.817 337.872 356.367 321.306 369.9C304.972 383.2 282.222 389.85 253.056 389.85ZM241.506 362.55H280.006V421.35H241.506V362.55ZM280.006 160.25H241.506V103.55H280.006V160.25Z" fill="white"/>
</g>
<defs>
<clipPath id="clip0_2280_169">
<rect width="512" height="512" fill="white"/>
</clipPath>
</defs>
</svg>
