<svg width="128" height="128" viewBox="0 0 128 128" fill="none" xmlns="http://www.w3.org/2000/svg">
<path fill-rule="evenodd" clip-rule="evenodd" d="M64 128C99.3462 128 128 99.3462 128 64C128 28.6538 99.3462 0 64 0C28.6538 0 0 28.6538 0 64C0 99.3462 28.6538 128 64 128ZM17.778 63.9996C17.778 70.6006 20.4002 76.9311 25.0677 81.5987C29.7353 86.2663 36.0659 88.8885 42.6669 88.8885H46.2224V79.6441H42.6669C38.5177 79.6441 34.5385 77.9958 31.6046 75.0619C28.6707 72.128 27.0224 68.1488 27.0224 63.9996C27.0224 59.8504 28.6707 55.8712 31.6046 52.9373C34.5385 50.0034 38.5177 48.3552 42.6669 48.3552H51.2002V96.7107C51.2002 97.9247 51.4393 99.1268 51.9039 100.248C52.3685 101.37 53.0494 102.389 53.9078 103.248C54.7662 104.106 55.7853 104.787 56.9069 105.251C58.0285 105.716 59.2306 105.955 60.4446 105.955V39.1107H42.6669C36.0659 39.1107 29.7353 41.7329 25.0677 46.4005C20.4002 51.0681 17.778 57.3987 17.778 63.9996ZM85.3338 39.1107H81.7782V48.3551H85.3338C89.4829 48.3551 93.4622 50.0034 96.3961 52.9373C99.33 55.8712 100.978 59.8504 100.978 63.9996C100.978 68.1487 99.33 72.128 96.3961 75.0619C93.4622 77.9958 89.4829 79.644 85.3338 79.644H76.8004V31.2885C76.8004 28.8367 75.8265 26.4853 74.0928 24.7517C72.3591 23.018 70.0078 22.044 67.556 22.044V88.8885H85.3338C88.6022 88.8885 91.8387 88.2447 94.8583 86.9939C97.878 85.7431 100.622 83.9098 102.933 81.5987C105.244 79.2875 107.077 76.5438 108.328 73.5241C109.579 70.5045 110.223 67.268 110.223 63.9996C110.223 60.7311 109.579 57.4947 108.328 54.475C107.077 51.4553 105.244 48.7116 102.933 46.4005C100.622 44.0893 97.878 42.256 94.8583 41.0052C91.8387 39.7545 88.6022 39.1107 85.3338 39.1107Z" fill="black"/>
</svg>
